<svg width="1200" height="630" viewBox="0 0 1200 630" fill="none" xmlns="http://www.w3.org/2000/svg">
  <!-- Background -->
  <rect width="1200" height="630" fill="#FFFFFF"/>
  
  <!-- Split layout - left content, right visual -->
  <rect x="700" y="0" width="500" height="630" fill="#F4F4F5"/>
  
  <!-- Tech pattern on right -->
  <defs>
    <pattern id="dots2" width="20" height="20" patternUnits="userSpaceOnUse">
      <circle cx="2" cy="2" r="1" fill="#D4D4D8"/>
    </pattern>
  </defs>
  <rect x="700" y="0" width="500" height="630" fill="url(#dots2)"/>
  
  <!-- Code block aesthetic -->
  <rect x="750" y="150" width="400" height="330" fill="#18181B" rx="8"/>
  <circle cx="775" cy="175" r="6" fill="#EF4444"/>
  <circle cx="795" cy="175" r="6" fill="#F59E0B"/>
  <circle cx="815" cy="175" r="6" fill="#22C55E"/>
  
  <!-- Code lines -->
  <rect x="775" y="210" width="120" height="8" fill="#6366F1" rx="2"/>
  <rect x="775" y="235" width="200" height="8" fill="#A1A1AA" rx="2"/>
  <rect x="795" y="260" width="180" height="8" fill="#A1A1AA" rx="2"/>
  <rect x="795" y="285" width="140" height="8" fill="#22C55E" rx="2"/>
  <rect x="795" y="310" width="220" height="8" fill="#A1A1AA" rx="2"/>
  <rect x="775" y="335" width="100" height="8" fill="#6366F1" rx="2"/>
  <rect x="775" y="360" width="180" height="8" fill="#A1A1AA" rx="2"/>
  <rect x="795" y="385" width="160" height="8" fill="#F59E0B" rx="2"/>
  <rect x="775" y="410" width="80" height="8" fill="#6366F1" rx="2"/>
  
  <!-- Dev Weekends branding -->
  <text x="60" y="60" font-family="system-ui, -apple-system, sans-serif" font-size="14" font-weight="600" fill="#18181B" letter-spacing="3">DEV WEEKENDS</text>
  
  <!-- Category -->
  <rect x="60" y="180" width="100" height="28" fill="#18181B"/>
  <text x="110" y="199" font-family="system-ui, -apple-system, sans-serif" font-size="10" font-weight="600" fill="#FFFFFF" text-anchor="middle" letter-spacing="2">TUTORIAL</text>
  
  <!-- Main title -->
  <text x="60" y="270" font-family="system-ui, -apple-system, sans-serif" font-size="42" font-weight="700" fill="#18181B">How to Build</text>
  <text x="60" y="325" font-family="system-ui, -apple-system, sans-serif" font-size="42" font-weight="700" fill="#18181B">Something Great</text>
  
  <!-- Tech tags -->
  <rect x="60" y="380" width="80" height="26" fill="#F4F4F5" rx="4"/>
  <text x="100" y="398" font-family="system-ui, -apple-system, sans-serif" font-size="11" font-weight="500" fill="#52525B" text-anchor="middle">React</text>
  
  <rect x="150" y="380" width="100" height="26" fill="#F4F4F5" rx="4"/>
  <text x="200" y="398" font-family="system-ui, -apple-system, sans-serif" font-size="11" font-weight="500" fill="#52525B" text-anchor="middle">TypeScript</text>
  
  <rect x="260" y="380" width="80" height="26" fill="#F4F4F5" rx="4"/>
  <text x="300" y="398" font-family="system-ui, -apple-system, sans-serif" font-size="11" font-weight="500" fill="#52525B" text-anchor="middle">Next.js</text>
  
  <!-- Author -->
  <text x="60" y="550" font-family="system-ui, -apple-system, sans-serif" font-size="14" font-weight="600" fill="#18181B">Author Name</text>
  <text x="60" y="575" font-family="system-ui, -apple-system, sans-serif" font-size="12" fill="#71717A">Step-by-step guide • 10 min read</text>
</svg>