<svg width="1200" height="1200" viewBox="0 0 1200 1200" fill="none" xmlns="http://www.w3.org/2000/svg">
  <rect width="1200" height="1200" fill="#FAFAFA"/>
  
  <!-- Header -->
  <text x="60" y="80" font-family="system-ui, sans-serif" font-size="16" font-weight="600" fill="#18181B" letter-spacing="3">DEV WEEKENDS</text>
  
  <!-- Poll badge -->
  <rect x="60" y="180" width="100" height="40" fill="#18181B"/>
  <text x="110" y="208" font-family="system-ui, sans-serif" font-size="12" font-weight="600" fill="#FAFAFA" text-anchor="middle" letter-spacing="2">POLL</text>
  
  <!-- Question -->
  <text x="60" y="340" font-family="system-ui, sans-serif" font-size="48" font-weight="700" fill="#18181B">Which framework</text>
  <text x="60" y="410" font-family="system-ui, sans-serif" font-size="48" font-weight="700" fill="#18181B">should you learn</text>
  <text x="60" y="480" font-family="system-ui, sans-serif" font-size="48" font-weight="700" fill="#18181B">in 2025?</text>
  
  <!-- Poll options -->
  <rect x="60" y="560" width="1080" height="80" fill="#F4F4F5" rx="8"/>
  <text x="100" y="610" font-family="system-ui, sans-serif" font-size="24" font-weight="500" fill="#18181B">React.js</text>
  <text x="1100" y="610" font-family="system-ui, sans-serif" font-size="24" font-weight="600" fill="#71717A" text-anchor="end">45%</text>
  <rect x="60" y="620" width="486" height="20" fill="#18181B" rx="4" opacity="0.1"/>
  
  <rect x="60" y="660" width="1080" height="80" fill="#F4F4F5" rx="8"/>
  <text x="100" y="710" font-family="system-ui, sans-serif" font-size="24" font-weight="500" fill="#18181B">Next.js</text>
  <text x="1100" y="710" font-family="system-ui, sans-serif" font-size="24" font-weight="600" fill="#71717A" text-anchor="end">32%</text>
  <rect x="60" y="720" width="345" height="20" fill="#18181B" rx="4" opacity="0.1"/>
  
  <rect x="60" y="760" width="1080" height="80" fill="#F4F4F5" rx="8"/>
  <text x="100" y="810" font-family="system-ui, sans-serif" font-size="24" font-weight="500" fill="#18181B">Vue.js</text>
  <text x="1100" y="810" font-family="system-ui, sans-serif" font-size="24" font-weight="600" fill="#71717A" text-anchor="end">15%</text>
  <rect x="60" y="820" width="162" height="20" fill="#18181B" rx="4" opacity="0.1"/>
  
  <rect x="60" y="860" width="1080" height="80" fill="#F4F4F5" rx="8"/>
  <text x="100" y="910" font-family="system-ui, sans-serif" font-size="24" font-weight="500" fill="#18181B">Svelte</text>
  <text x="1100" y="910" font-family="system-ui, sans-serif" font-size="24" font-weight="600" fill="#71717A" text-anchor="end">8%</text>
  <rect x="60" y="920" width="86" height="20" fill="#18181B" rx="4" opacity="0.1"/>
  
  <!-- Vote count -->
  <text x="60" y="1020" font-family="system-ui, sans-serif" font-size="18" fill="#71717A">2,847 votes • 3 days left</text>
  
  <!-- CTA -->
  <text x="60" y="1100" font-family="system-ui, sans-serif" font-size="20" font-weight="600" fill="#18181B">Vote in comments! 👇</text>
  
  <!-- Footer -->
  <text x="60" y="1160" font-family="system-ui, sans-serif" font-size="14" fill="#A1A1AA">@devweekends</text>
</svg>