<svg width="1080" height="1080" viewBox="0 0 1080 1080" fill="none" xmlns="http://www.w3.org/2000/svg">
  <rect width="1080" height="1080" fill="#18181B"/>
  
  <text x="60" y="80" font-family="system-ui, sans-serif" font-size="14" font-weight="600" fill="#FAFAFA" letter-spacing="3">DEV WEEKENDS</text>
  
  <rect x="60" y="140" width="180" height="40" fill="#3B82F6"/>
  <text x="150" y="168" font-family="system-ui, sans-serif" font-size="14" font-weight="600" fill="#FAFAFA" text-anchor="middle">ENGINEERING</text>
  
  <text x="60" y="320" font-family="system-ui, sans-serif" font-size="64" font-weight="700" fill="#FAFAFA">Big O</text>
  <text x="60" y="400" font-family="system-ui, sans-serif" font-size="64" font-weight="700" fill="#FEF08A">Notation</text>
  
  <text x="60" y="480" font-family="system-ui, sans-serif" font-size="22" fill="#A1A1AA">Measure algorithm efficiency</text>
  
  <rect x="60" y="530" width="960" height="400" fill="#27272A" rx="8"/>
  
  <text x="100" y="580" font-family="system-ui, sans-serif" font-size="16" font-weight="600" fill="#FAFAFA">Common Complexities (best to worst)</text>
  
  <rect x="100" y="610" width="180" height="50" fill="#22C55E" rx="4"/>
  <text x="190" y="643" font-family="monospace" font-size="16" font-weight="600" fill="#18181B" text-anchor="middle">O(1)</text>
  <text x="300" y="643" font-family="system-ui, sans-serif" font-size="14" fill="#A1A1AA">Constant</text>
  
  <rect x="100" y="670" width="250" height="50" fill="#22C55E" rx="4"/>
  <text x="190" y="703" font-family="monospace" font-size="16" font-weight="600" fill="#18181B" text-anchor="middle">O(log n)</text>
  <text x="370" y="703" font-family="system-ui, sans-serif" font-size="14" fill="#A1A1AA">Logarithmic</text>
  
  <rect x="100" y="730" width="350" height="50" fill="#FEF08A" rx="4"/>
  <text x="190" y="763" font-family="monospace" font-size="16" font-weight="600" fill="#18181B" text-anchor="middle">O(n)</text>
  <text x="470" y="763" font-family="system-ui, sans-serif" font-size="14" fill="#A1A1AA">Linear</text>
  
  <rect x="100" y="790" width="500" height="50" fill="#F59E0B" rx="4"/>
  <text x="190" y="823" font-family="monospace" font-size="16" font-weight="600" fill="#18181B" text-anchor="middle">O(n log n)</text>
  <text x="620" y="823" font-family="system-ui, sans-serif" font-size="14" fill="#A1A1AA">Linearithmic</text>
  
  <rect x="100" y="850" width="700" height="50" fill="#EF4444" rx="4"/>
  <text x="190" y="883" font-family="monospace" font-size="16" font-weight="600" fill="#FAFAFA" text-anchor="middle">O(n^2)</text>
  <text x="820" y="883" font-family="system-ui, sans-serif" font-size="14" fill="#A1A1AA">Quadratic</text>
  
  <text x="540" y="1040" font-family="system-ui, sans-serif" font-size="14" fill="#52525B" text-anchor="middle">@devweekends</text>
</svg>