<svg width="1080" height="1080" viewBox="0 0 1080 1080" fill="none" xmlns="http://www.w3.org/2000/svg">
  <rect width="1080" height="1080" fill="#FAFAFA"/>
  
  <text x="60" y="80" font-family="system-ui, sans-serif" font-size="14" font-weight="600" fill="#18181B" letter-spacing="3">DEV WEEKENDS</text>
  
  <rect x="60" y="140" width="180" height="40" fill="#18181B"/>
  <text x="150" y="168" font-family="system-ui, sans-serif" font-size="14" font-weight="600" fill="#FAFAFA" text-anchor="middle">ENGINEERING</text>
  
  <text x="60" y="320" font-family="system-ui, sans-serif" font-size="64" font-weight="700" fill="#18181B">Git</text>
  <text x="60" y="400" font-family="system-ui, sans-serif" font-size="64" font-weight="700" fill="#EF4444">Commands</text>
  
  <text x="60" y="460" font-family="system-ui, sans-serif" font-size="22" fill="#52525B">Essential commands every dev should know</text>
  
  <rect x="60" y="510" width="960" height="420" fill="#F4F4F5" rx="8"/>
  
  <rect x="100" y="550" width="420" height="60" fill="#18181B" rx="4"/>
  <text x="120" y="588" font-family="monospace" font-size="15" fill="#22C55E">git clone</text>
  <text x="250" y="588" font-family="system-ui, sans-serif" font-size="14" fill="#A1A1AA">Copy remote repo</text>
  
  <rect x="560" y="550" width="420" height="60" fill="#18181B" rx="4"/>
  <text x="580" y="588" font-family="monospace" font-size="15" fill="#22C55E">git branch</text>
  <text x="730" y="588" font-family="system-ui, sans-serif" font-size="14" fill="#A1A1AA">List/create branches</text>
  
  <rect x="100" y="625" width="420" height="60" fill="#18181B" rx="4"/>
  <text x="120" y="663" font-family="monospace" font-size="15" fill="#FEF08A">git checkout</text>
  <text x="290" y="663" font-family="system-ui, sans-serif" font-size="14" fill="#A1A1AA">Switch branches</text>
  
  <rect x="560" y="625" width="420" height="60" fill="#18181B" rx="4"/>
  <text x="580" y="663" font-family="monospace" font-size="15" fill="#FEF08A">git merge</text>
  <text x="720" y="663" font-family="system-ui, sans-serif" font-size="14" fill="#A1A1AA">Combine branches</text>
  
  <rect x="100" y="700" width="420" height="60" fill="#18181B" rx="4"/>
  <text x="120" y="738" font-family="monospace" font-size="15" fill="#3B82F6">git rebase</text>
  <text x="265" y="738" font-family="system-ui, sans-serif" font-size="14" fill="#A1A1AA">Replay commits</text>
  
  <rect x="560" y="700" width="420" height="60" fill="#18181B" rx="4"/>
  <text x="580" y="738" font-family="monospace" font-size="15" fill="#3B82F6">git stash</text>
  <text x="710" y="738" font-family="system-ui, sans-serif" font-size="14" fill="#A1A1AA">Save changes temp</text>
  
  <rect x="100" y="775" width="420" height="60" fill="#18181B" rx="4"/>
  <text x="120" y="813" font-family="monospace" font-size="15" fill="#A855F7">git reset</text>
  <text x="245" y="813" font-family="system-ui, sans-serif" font-size="14" fill="#A1A1AA">Undo commits</text>
  
  <rect x="560" y="775" width="420" height="60" fill="#18181B" rx="4"/>
  <text x="580" y="813" font-family="monospace" font-size="15" fill="#A855F7">git cherry-pick</text>
  <text x="770" y="813" font-family="system-ui, sans-serif" font-size="14" fill="#A1A1AA">Pick specific commit</text>
  
  <rect x="100" y="850" width="880" height="60" fill="#EF4444" rx="4"/>
  <text x="120" y="888" font-family="monospace" font-size="15" fill="#FAFAFA">git reflog</text>
  <text x="250" y="888" font-family="system-ui, sans-serif" font-size="14" fill="#FAFAFA">Recovery tool - shows all HEAD history</text>
  
  <text x="540" y="1040" font-family="system-ui, sans-serif" font-size="14" fill="#71717A" text-anchor="middle">@devweekends</text>
</svg>