<svg width="1080" height="1080" viewBox="0 0 1080 1080" fill="none" xmlns="http://www.w3.org/2000/svg">
  <rect width="1080" height="1080" fill="#18181B"/>
  
  <text x="60" y="80" font-family="system-ui, sans-serif" font-size="14" font-weight="600" fill="#FAFAFA" letter-spacing="3">DEV WEEKENDS</text>
  
  <rect x="60" y="140" width="180" height="40" fill="#3B82F6"/>
  <text x="150" y="168" font-family="system-ui, sans-serif" font-size="14" font-weight="600" fill="#FAFAFA" text-anchor="middle">ENGINEERING</text>
  
  <text x="60" y="320" font-family="system-ui, sans-serif" font-size="64" font-weight="700" fill="#FAFAFA">HTTP</text>
  <text x="60" y="400" font-family="system-ui, sans-serif" font-size="64" font-weight="700" fill="#FEF08A">Status Codes</text>
  
  <rect x="60" y="460" width="960" height="470" fill="#27272A" rx="8"/>
  
  <rect x="100" y="500" width="420" height="80" fill="#22C55E" rx="4"/>
  <text x="120" y="540" font-family="system-ui, sans-serif" font-size="20" font-weight="700" fill="#18181B">2xx Success</text>
  <text x="120" y="565" font-family="monospace" font-size="13" fill="#18181B">200 OK | 201 Created | 204 No Content</text>
  
  <rect x="560" y="500" width="420" height="80" fill="#3B82F6" rx="4"/>
  <text x="580" y="540" font-family="system-ui, sans-serif" font-size="20" font-weight="700" fill="#FAFAFA">3xx Redirect</text>
  <text x="580" y="565" font-family="monospace" font-size="13" fill="#FAFAFA">301 Moved | 302 Found | 304 Not Modified</text>
  
  <rect x="100" y="600" width="420" height="80" fill="#FEF08A" rx="4"/>
  <text x="120" y="640" font-family="system-ui, sans-serif" font-size="20" font-weight="700" fill="#18181B">4xx Client Error</text>
  <text x="120" y="665" font-family="monospace" font-size="12" fill="#18181B">400 Bad Request | 401 Unauthorized | 404 Not Found</text>
  
  <rect x="560" y="600" width="420" height="80" fill="#EF4444" rx="4"/>
  <text x="580" y="640" font-family="system-ui, sans-serif" font-size="20" font-weight="700" fill="#FAFAFA">5xx Server Error</text>
  <text x="580" y="665" font-family="monospace" font-size="12" fill="#FAFAFA">500 Internal | 502 Bad Gateway | 503 Unavailable</text>
  
  <text x="540" y="730" font-family="system-ui, sans-serif" font-size="18" font-weight="600" fill="#FAFAFA" text-anchor="middle">Most Common Codes</text>
  
  <rect x="100" y="760" width="140" height="50" fill="#3F3F46" rx="4"/>
  <text x="170" y="793" font-family="monospace" font-size="16" font-weight="600" fill="#22C55E" text-anchor="middle">200</text>
  
  <rect x="260" y="760" width="140" height="50" fill="#3F3F46" rx="4"/>
  <text x="330" y="793" font-family="monospace" font-size="16" font-weight="600" fill="#22C55E" text-anchor="middle">201</text>
  
  <rect x="420" y="760" width="140" height="50" fill="#3F3F46" rx="4"/>
  <text x="490" y="793" font-family="monospace" font-size="16" font-weight="600" fill="#FEF08A" text-anchor="middle">400</text>
  
  <rect x="580" y="760" width="140" height="50" fill="#3F3F46" rx="4"/>
  <text x="650" y="793" font-family="monospace" font-size="16" font-weight="600" fill="#FEF08A" text-anchor="middle">401</text>
  
  <rect x="740" y="760" width="140" height="50" fill="#3F3F46" rx="4"/>
  <text x="810" y="793" font-family="monospace" font-size="16" font-weight="600" fill="#FEF08A" text-anchor="middle">404</text>
  
  <rect x="900" y="760" width="80" height="50" fill="#3F3F46" rx="4"/>
  <text x="940" y="793" font-family="monospace" font-size="16" font-weight="600" fill="#EF4444" text-anchor="middle">500</text>
  
  <text x="540" y="870" font-family="system-ui, sans-serif" font-size="16" fill="#A1A1AA" text-anchor="middle">418 I'm a teapot - yes, it's real</text>
  
  <text x="540" y="1040" font-family="system-ui, sans-serif" font-size="14" fill="#52525B" text-anchor="middle">@devweekends</text>
</svg>