<svg width="1080" height="1080" viewBox="0 0 1080 1080" fill="none" xmlns="http://www.w3.org/2000/svg">
  <rect width="1080" height="1080" fill="#18181B"/>
  
  <text x="60" y="80" font-family="system-ui, sans-serif" font-size="14" font-weight="600" fill="#FAFAFA" letter-spacing="3">DEV WEEKENDS</text>
  
  <rect x="60" y="140" width="180" height="40" fill="#3B82F6"/>
  <text x="150" y="168" font-family="system-ui, sans-serif" font-size="14" font-weight="600" fill="#FAFAFA" text-anchor="middle">ENGINEERING</text>
  
  <text x="60" y="320" font-family="system-ui, sans-serif" font-size="64" font-weight="700" fill="#FAFAFA">CI/CD</text>
  <text x="60" y="400" font-family="system-ui, sans-serif" font-size="64" font-weight="700" fill="#22C55E">Pipeline</text>
  
  <text x="60" y="480" font-family="system-ui, sans-serif" font-size="22" fill="#A1A1AA">Continuous Integration & Delivery</text>
  
  <rect x="60" y="530" width="960" height="400" fill="#27272A" rx="8"/>
  
  <rect x="100" y="590" width="160" height="80" fill="#3B82F6" rx="4"/>
  <text x="180" y="635" font-family="system-ui, sans-serif" font-size="16" font-weight="600" fill="#FAFAFA" text-anchor="middle">Code</text>
  <text x="180" y="660" font-family="system-ui, sans-serif" font-size="12" fill="#FAFAFA" text-anchor="middle">Push</text>
  
  <line x1="260" y1="630" x2="300" y2="630" stroke="#FEF08A" stroke-width="2"/>
  <polygon points="300,625 310,630 300,635" fill="#FEF08A"/>
  
  <rect x="300" y="590" width="160" height="80" fill="#FEF08A" rx="4"/>
  <text x="380" y="635" font-family="system-ui, sans-serif" font-size="16" font-weight="600" fill="#18181B" text-anchor="middle">Build</text>
  <text x="380" y="660" font-family="system-ui, sans-serif" font-size="12" fill="#18181B" text-anchor="middle">Compile</text>
  
  <line x1="460" y1="630" x2="500" y2="630" stroke="#FEF08A" stroke-width="2"/>
  <polygon points="500,625 510,630 500,635" fill="#FEF08A"/>
  
  <rect x="500" y="590" width="160" height="80" fill="#A855F7" rx="4"/>
  <text x="580" y="635" font-family="system-ui, sans-serif" font-size="16" font-weight="600" fill="#FAFAFA" text-anchor="middle">Test</text>
  <text x="580" y="660" font-family="system-ui, sans-serif" font-size="12" fill="#FAFAFA" text-anchor="middle">Unit + Int</text>
  
  <line x1="660" y1="630" x2="700" y2="630" stroke="#FEF08A" stroke-width="2"/>
  <polygon points="700,625 710,630 700,635" fill="#FEF08A"/>
  
  <rect x="700" y="590" width="160" height="80" fill="#EF4444" rx="4"/>
  <text x="780" y="635" font-family="system-ui, sans-serif" font-size="16" font-weight="600" fill="#FAFAFA" text-anchor="middle">Deploy</text>
  <text x="780" y="660" font-family="system-ui, sans-serif" font-size="12" fill="#FAFAFA" text-anchor="middle">Staging</text>
  
  <line x1="860" y1="630" x2="900" y2="630" stroke="#FEF08A" stroke-width="2"/>
  <polygon points="900,625 910,630 900,635" fill="#FEF08A"/>
  
  <rect x="880" y="590" width="100" height="80" fill="#22C55E" rx="4"/>
  <text x="930" y="640" font-family="system-ui, sans-serif" font-size="14" font-weight="600" fill="#18181B" text-anchor="middle">Prod</text>
  
  <rect x="100" y="720" width="420" height="80" fill="#3F3F46" rx="4"/>
  <text x="120" y="755" font-family="system-ui, sans-serif" font-size="16" font-weight="600" fill="#22C55E">CI: Continuous Integration</text>
  <text x="120" y="785" font-family="system-ui, sans-serif" font-size="14" fill="#A1A1AA">Merge frequently, test automatically</text>
  
  <rect x="560" y="720" width="420" height="80" fill="#3F3F46" rx="4"/>
  <text x="580" y="755" font-family="system-ui, sans-serif" font-size="16" font-weight="600" fill="#3B82F6">CD: Continuous Delivery</text>
  <text x="580" y="785" font-family="system-ui, sans-serif" font-size="14" fill="#A1A1AA">Always ready to deploy to production</text>
  
  <text x="540" y="860" font-family="system-ui, sans-serif" font-size="14" fill="#A1A1AA" text-anchor="middle">Tools: GitHub Actions, Jenkins, GitLab CI, CircleCI</text>
  
  <text x="540" y="1040" font-family="system-ui, sans-serif" font-size="14" fill="#52525B" text-anchor="middle">@devweekends</text>
</svg>