<svg width="1080" height="1080" viewBox="0 0 1080 1080" fill="none" xmlns="http://www.w3.org/2000/svg">
  <rect width="1080" height="1080" fill="#FAFAFA"/>
  
  <text x="60" y="80" font-family="system-ui, sans-serif" font-size="14" font-weight="600" fill="#18181B" letter-spacing="3">DEV WEEKENDS</text>
  
  <rect x="60" y="140" width="180" height="40" fill="#18181B"/>
  <text x="150" y="168" font-family="system-ui, sans-serif" font-size="14" font-weight="600" fill="#FAFAFA" text-anchor="middle">ENGINEERING</text>
  
  <text x="60" y="320" font-family="system-ui, sans-serif" font-size="64" font-weight="700" fill="#18181B">Monolith vs</text>
  <text x="60" y="400" font-family="system-ui, sans-serif" font-size="64" font-weight="700" fill="#3B82F6">Microservices</text>
  
  <rect x="60" y="470" width="960" height="450" fill="#F4F4F5" rx="8"/>
  
  <text x="310" y="520" font-family="system-ui, sans-serif" font-size="20" font-weight="600" fill="#18181B" text-anchor="middle">Monolith</text>
  
  <rect x="140" y="540" width="340" height="200" fill="#EF4444" rx="8"/>
  <rect x="160" y="560" width="300" height="40" fill="#FAFAFA" rx="4"/>
  <text x="310" y="588" font-family="system-ui, sans-serif" font-size="14" fill="#18181B" text-anchor="middle">User Module</text>
  <rect x="160" y="610" width="300" height="40" fill="#FAFAFA" rx="4"/>
  <text x="310" y="638" font-family="system-ui, sans-serif" font-size="14" fill="#18181B" text-anchor="middle">Order Module</text>
  <rect x="160" y="660" width="300" height="40" fill="#FAFAFA" rx="4"/>
  <text x="310" y="688" font-family="system-ui, sans-serif" font-size="14" fill="#18181B" text-anchor="middle">Payment Module</text>
  <rect x="160" y="710" width="300" height="20" fill="#FAFAFA" rx="4"/>
  <text x="310" y="725" font-family="system-ui, sans-serif" font-size="10" fill="#18181B" text-anchor="middle">Single Codebase</text>
  
  <text x="770" y="520" font-family="system-ui, sans-serif" font-size="20" font-weight="600" fill="#18181B" text-anchor="middle">Microservices</text>
  
  <rect x="600" y="540" width="140" height="80" fill="#22C55E" rx="8"/>
  <text x="670" y="588" font-family="system-ui, sans-serif" font-size="14" fill="#FAFAFA" text-anchor="middle">Users</text>
  
  <rect x="760" y="540" width="140" height="80" fill="#3B82F6" rx="8"/>
  <text x="830" y="588" font-family="system-ui, sans-serif" font-size="14" fill="#FAFAFA" text-anchor="middle">Orders</text>
  
  <rect x="600" y="640" width="140" height="80" fill="#FEF08A" rx="8"/>
  <text x="670" y="688" font-family="system-ui, sans-serif" font-size="14" fill="#18181B" text-anchor="middle">Payment</text>
  
  <rect x="760" y="640" width="140" height="80" fill="#A855F7" rx="8"/>
  <text x="830" y="688" font-family="system-ui, sans-serif" font-size="14" fill="#FAFAFA" text-anchor="middle">Notify</text>
  
  <rect x="100" y="780" width="420" height="100" fill="#18181B" rx="4"/>
  <text x="310" y="815" font-family="system-ui, sans-serif" font-size="14" font-weight="600" fill="#FAFAFA" text-anchor="middle">Simple, easy deploy</text>
  <text x="310" y="850" font-family="system-ui, sans-serif" font-size="13" fill="#A1A1AA" text-anchor="middle">Hard to scale, single point of failure</text>
  
  <rect x="560" y="780" width="420" height="100" fill="#18181B" rx="4"/>
  <text x="770" y="815" font-family="system-ui, sans-serif" font-size="14" font-weight="600" fill="#FAFAFA" text-anchor="middle">Scalable, independent deploy</text>
  <text x="770" y="850" font-family="system-ui, sans-serif" font-size="13" fill="#A1A1AA" text-anchor="middle">Complex, distributed challenges</text>
  
  <text x="540" y="1040" font-family="system-ui, sans-serif" font-size="14" fill="#71717A" text-anchor="middle">@devweekends</text>
</svg>