<svg width="1080" height="1080" viewBox="0 0 1080 1080" fill="none" xmlns="http://www.w3.org/2000/svg">
  <rect width="1080" height="1080" fill="#18181B"/>
  
  <text x="60" y="80" font-family="system-ui, sans-serif" font-size="14" font-weight="600" fill="#FAFAFA" letter-spacing="3">DEV WEEKENDS</text>
  
  <rect x="60" y="140" width="180" height="40" fill="#3B82F6"/>
  <text x="150" y="168" font-family="system-ui, sans-serif" font-size="14" font-weight="600" fill="#FAFAFA" text-anchor="middle">ENGINEERING</text>
  
  <text x="60" y="320" font-family="system-ui, sans-serif" font-size="64" font-weight="700" fill="#FAFAFA">Debugging</text>
  <text x="60" y="400" font-family="system-ui, sans-serif" font-size="64" font-weight="700" fill="#FEF08A">Techniques</text>
  
  <rect x="60" y="460" width="960" height="470" fill="#27272A" rx="8"/>
  
  <rect x="100" y="500" width="420" height="90" fill="#3F3F46" rx="4"/>
  <text x="120" y="540" font-family="system-ui, sans-serif" font-size="18" font-weight="600" fill="#FEF08A">Rubber Duck Debugging</text>
  <text x="120" y="570" font-family="system-ui, sans-serif" font-size="14" fill="#A1A1AA">Explain code line by line to find bugs</text>
  
  <rect x="560" y="500" width="420" height="90" fill="#3F3F46" rx="4"/>
  <text x="580" y="540" font-family="system-ui, sans-serif" font-size="18" font-weight="600" fill="#22C55E">Binary Search</text>
  <text x="580" y="570" font-family="system-ui, sans-serif" font-size="14" fill="#A1A1AA">Comment out half the code, narrow down</text>
  
  <rect x="100" y="610" width="420" height="90" fill="#3F3F46" rx="4"/>
  <text x="120" y="650" font-family="system-ui, sans-serif" font-size="18" font-weight="600" fill="#3B82F6">Print Statements</text>
  <text x="120" y="680" font-family="system-ui, sans-serif" font-size="14" fill="#A1A1AA">console.log() is your friend</text>
  
  <rect x="560" y="610" width="420" height="90" fill="#3F3F46" rx="4"/>
  <text x="580" y="650" font-family="system-ui, sans-serif" font-size="18" font-weight="600" fill="#A855F7">Breakpoints</text>
  <text x="580" y="680" font-family="system-ui, sans-serif" font-size="14" fill="#A1A1AA">Pause and inspect state in debugger</text>
  
  <rect x="100" y="720" width="420" height="90" fill="#3F3F46" rx="4"/>
  <text x="120" y="760" font-family="system-ui, sans-serif" font-size="18" font-weight="600" fill="#EF4444">Read the Error</text>
  <text x="120" y="790" font-family="system-ui, sans-serif" font-size="14" fill="#A1A1AA">Actually read the stack trace first</text>
  
  <rect x="560" y="720" width="420" height="90" fill="#3F3F46" rx="4"/>
  <text x="580" y="760" font-family="system-ui, sans-serif" font-size="18" font-weight="600" fill="#FAFAFA">Reproduce First</text>
  <text x="580" y="790" font-family="system-ui, sans-serif" font-size="14" fill="#A1A1AA">Cant fix what you cant reproduce</text>
  
  <rect x="100" y="830" width="880" height="70" fill="#FEF08A" rx="4"/>
  <text x="540" y="873" font-family="system-ui, sans-serif" font-size="16" font-weight="600" fill="#18181B" text-anchor="middle">"If debugging is removing bugs, then programming is adding them"</text>
  
  <text x="540" y="1040" font-family="system-ui, sans-serif" font-size="14" fill="#52525B" text-anchor="middle">@devweekends</text>
</svg>