<svg width="1080" height="1080" viewBox="0 0 1080 1080" fill="none" xmlns="http://www.w3.org/2000/svg">
  <rect width="1080" height="1080" fill="#FAFAFA"/>
  <rect x="0" y="0" width="8" height="1080" fill="#8B5CF6"/>
  
  <text x="60" y="80" font-family="system-ui, sans-serif" font-size="14" font-weight="600" fill="#18181B" letter-spacing="3">DEV WEEKENDS</text>
  
  <rect x="60" y="130" width="250" height="40" fill="#8B5CF6"/>
  <text x="185" y="157" font-family="system-ui, sans-serif" font-size="12" font-weight="600" fill="#FAFAFA" text-anchor="middle" letter-spacing="2">PRODUCTIVITY TIP</text>
  
  <text x="60" y="280" font-family="system-ui, sans-serif" font-size="42" font-weight="700" fill="#18181B">Split Editor</text>
  <text x="60" y="340" font-family="system-ui, sans-serif" font-size="42" font-weight="700" fill="#8B5CF6">Multitasking</text>
  
  <rect x="60" y="400" width="960" height="500" fill="#F4F4F5" rx="8"/>
  
  <text x="100" y="460" font-family="monospace" font-size="18" font-weight="600" fill="#18181B">Split View Commands:</text>
  
  <rect x="100" y="490" width="860" height="50" fill="#18181B" rx="4"/>
  <text x="120" y="523" font-family="monospace" font-size="16" fill="#22C55E">Ctrl + \</text>
  <text x="300" y="523" font-family="system-ui, sans-serif" font-size="14" fill="#A1A1AA">Split editor vertically</text>
  
  <rect x="100" y="555" width="860" height="50" fill="#18181B" rx="4"/>
  <text x="120" y="588" font-family="monospace" font-size="16" fill="#22C55E">Ctrl + K, Ctrl + \</text>
  <text x="300" y="588" font-family="system-ui, sans-serif" font-size="14" fill="#A1A1AA">Split editor horizontally</text>
  
  <rect x="100" y="620" width="860" height="50" fill="#18181B" rx="4"/>
  <text x="120" y="653" font-family="monospace" font-size="16" fill="#22C55E">Ctrl + 1/2/3</text>
  <text x="300" y="653" font-family="system-ui, sans-serif" font-size="14" fill="#A1A1AA">Focus on editor group 1, 2, or 3</text>
  
  <rect x="100" y="685" width="860" height="50" fill="#18181B" rx="4"/>
  <text x="120" y="718" font-family="monospace" font-size="16" fill="#22C55E">Ctrl + K, ← / →</text>
  <text x="300" y="718" font-family="system-ui, sans-serif" font-size="14" fill="#A1A1AA">Move active file to left/right group</text>
  
  <rect x="100" y="750" width="860" height="50" fill="#18181B" rx="4"/>
  <text x="120" y="783" font-family="monospace" font-size="16" fill="#22C55E">Ctrl + W</text>
  <text x="300" y="783" font-family="system-ui, sans-serif" font-size="14" fill="#A1A1AA">Close current editor</text>
  
  <text x="100" y="850" font-family="system-ui, sans-serif" font-size="16" fill="#52525B">💡 View component and its test side by side!</text>
  
  <rect x="60" y="940" width="960" height="1" fill="#E5E5E5"/>
  <text x="60" y="1000" font-family="system-ui, sans-serif" font-size="14" fill="#71717A">Work on multiple files simultaneously</text>
  <text x="980" y="1000" font-family="system-ui, sans-serif" font-size="14" fill="#A1A1AA" text-anchor="end">@devweekends</text>
</svg>
