<svg width="1080" height="1080" viewBox="0 0 1080 1080" fill="none" xmlns="http://www.w3.org/2000/svg">
  <rect width="1080" height="1080" fill="#FAFAFA"/>
  
  <!-- Header -->
  <text x="60" y="80" font-family="system-ui, sans-serif" font-size="14" font-weight="600" fill="#18181B" letter-spacing="3">DEV WEEKENDS</text>
  
  <!-- Badge -->
  <rect x="60" y="160" width="200" height="40" fill="#18181B"/>
  <text x="160" y="188" font-family="system-ui, sans-serif" font-size="12" font-weight="600" fill="#FAFAFA" text-anchor="middle" letter-spacing="2">POLL TIME</text>
  
  <!-- Question -->
  <text x="60" y="320" font-family="system-ui, sans-serif" font-size="42" font-weight="700" fill="#18181B">What do you struggle</text>
  <text x="60" y="380" font-family="system-ui, sans-serif" font-size="42" font-weight="700" fill="#18181B">with most?</text>
  
  <!-- Options -->
  <rect x="60" y="450" width="960" height="100" fill="#F4F4F5" rx="8"/>
  <circle cx="130" cy="500" r="24" stroke="#18181B" stroke-width="3" fill="none"/>
  <text x="180" y="510" font-family="system-ui, sans-serif" font-size="24" fill="#18181B">Data Structures</text>
  
  <rect x="60" y="570" width="960" height="100" fill="#F4F4F5" rx="8"/>
  <circle cx="130" cy="620" r="24" stroke="#18181B" stroke-width="3" fill="none"/>
  <text x="180" y="630" font-family="system-ui, sans-serif" font-size="24" fill="#18181B">System Design</text>
  
  <rect x="60" y="690" width="960" height="100" fill="#F4F4F5" rx="8"/>
  <circle cx="130" cy="740" r="24" stroke="#18181B" stroke-width="3" fill="none"/>
  <text x="180" y="750" font-family="system-ui, sans-serif" font-size="24" fill="#18181B">Behavioral Interviews</text>
  
  <rect x="60" y="810" width="960" height="100" fill="#F4F4F5" rx="8"/>
  <circle cx="130" cy="860" r="24" stroke="#18181B" stroke-width="3" fill="none"/>
  <text x="180" y="870" font-family="system-ui, sans-serif" font-size="24" fill="#18181B">Building Projects</text>
  
  <!-- CTA -->
  <text x="60" y="980" font-family="system-ui, sans-serif" font-size="20" fill="#71717A">Vote in the comments! 👇</text>
  
  <!-- Footer -->
  <text x="980" y="1030" font-family="system-ui, sans-serif" font-size="14" fill="#A1A1AA" text-anchor="end">@devweekends</text>
</svg>