<svg width="1080" height="1080" viewBox="0 0 1080 1080" fill="none" xmlns="http://www.w3.org/2000/svg">
  <rect width="1080" height="1080" fill="#18181B"/>
  
  <!-- Header -->
  <text x="60" y="80" font-family="system-ui, sans-serif" font-size="14" font-weight="600" fill="#FAFAFA" letter-spacing="3">DEV WEEKENDS</text>
  
  <!-- Badge -->
  <rect x="60" y="160" width="200" height="40" fill="#FEF08A"/>
  <text x="160" y="188" font-family="system-ui, sans-serif" font-size="12" font-weight="600" fill="#18181B" text-anchor="middle" letter-spacing="2">CONCEPT</text>
  
  <!-- Title -->
  <text x="60" y="320" font-family="system-ui, sans-serif" font-size="48" font-weight="700" fill="#FAFAFA">Binary Search</text>
  <text x="60" y="380" font-family="system-ui, sans-serif" font-size="48" font-weight="700" fill="#A1A1AA">Explained</text>
  
  <!-- Visual representation -->
  <rect x="60" y="450" width="960" height="200" fill="#27272A" rx="8"/>
  
  <!-- Array visualization -->
  <rect x="100" y="510" width="60" height="60" fill="#3F3F46" rx="4"/>
  <text x="130" y="550" font-family="monospace" font-size="20" fill="#FAFAFA" text-anchor="middle">1</text>
  
  <rect x="180" y="510" width="60" height="60" fill="#3F3F46" rx="4"/>
  <text x="210" y="550" font-family="monospace" font-size="20" fill="#FAFAFA" text-anchor="middle">3</text>
  
  <rect x="260" y="510" width="60" height="60" fill="#3F3F46" rx="4"/>
  <text x="290" y="550" font-family="monospace" font-size="20" fill="#FAFAFA" text-anchor="middle">5</text>
  
  <rect x="340" y="510" width="60" height="60" fill="#3F3F46" rx="4"/>
  <text x="370" y="550" font-family="monospace" font-size="20" fill="#FAFAFA" text-anchor="middle">7</text>
  
  <rect x="420" y="510" width="60" height="60" fill="#FEF08A" rx="4"/>
  <text x="450" y="550" font-family="monospace" font-size="20" fill="#18181B" text-anchor="middle">9</text>
  <text x="450" y="600" font-family="system-ui, sans-serif" font-size="12" fill="#FEF08A" text-anchor="middle">mid</text>
  
  <rect x="500" y="510" width="60" height="60" fill="#3F3F46" rx="4"/>
  <text x="530" y="550" font-family="monospace" font-size="20" fill="#FAFAFA" text-anchor="middle">11</text>
  
  <rect x="580" y="510" width="60" height="60" fill="#3F3F46" rx="4"/>
  <text x="610" y="550" font-family="monospace" font-size="20" fill="#FAFAFA" text-anchor="middle">13</text>
  
  <rect x="660" y="510" width="60" height="60" fill="#3F3F46" rx="4"/>
  <text x="690" y="550" font-family="monospace" font-size="20" fill="#FAFAFA" text-anchor="middle">15</text>
  
  <!-- Time complexity -->
  <rect x="60" y="700" width="450" height="100" fill="#27272A" rx="8"/>
  <text x="100" y="750" font-family="system-ui, sans-serif" font-size="16" fill="#71717A">Time Complexity</text>
  <text x="100" y="780" font-family="monospace" font-size="24" fill="#22C55E">O(log n)</text>
  
  <rect x="530" y="700" width="490" height="100" fill="#27272A" rx="8"/>
  <text x="570" y="750" font-family="system-ui, sans-serif" font-size="16" fill="#71717A">Space Complexity</text>
  <text x="570" y="780" font-family="monospace" font-size="24" fill="#22C55E">O(1)</text>
  
  <!-- Key points -->
  <text x="60" y="880" font-family="system-ui, sans-serif" font-size="18" fill="#A1A1AA">✓ Works on sorted arrays</text>
  <text x="60" y="920" font-family="system-ui, sans-serif" font-size="18" fill="#A1A1AA">✓ Divides search space in half each step</text>
  <text x="60" y="960" font-family="system-ui, sans-serif" font-size="18" fill="#A1A1AA">✓ Much faster than linear search for large datasets</text>
  
  <!-- Footer -->
  <text x="540" y="1040" font-family="system-ui, sans-serif" font-size="14" fill="#52525B" text-anchor="middle">Save for your DSA prep 📌</text>
</svg>