<svg width="1080" height="1080" viewBox="0 0 1080 1080" fill="none" xmlns="http://www.w3.org/2000/svg">
  <rect width="1080" height="1080" fill="#FAFAFA"/>
  <rect x="40" y="40" width="1000" height="1000" rx="24" fill="white" stroke="#E4E4E7" stroke-width="2"/>
  
  <text x="540" y="120" font-family="system-ui, sans-serif" font-size="32" font-weight="bold" fill="#FF9900" text-anchor="middle">AWS SERVICES</text>
  
  <rect x="80" y="160" width="920" height="60" rx="12" fill="#232F3E"/>
  <text x="540" y="200" font-family="system-ui, sans-serif" font-size="28" font-weight="bold" fill="#FF9900" text-anchor="middle">🏗️ CLOUDFORMATION</text>
  
  <rect x="80" y="250" width="920" height="680" rx="16" fill="#FFF8F0" stroke="#FF9900" stroke-width="2"/>
  
  <text x="540" y="310" font-family="system-ui, sans-serif" font-size="26" font-weight="bold" fill="#232F3E" text-anchor="middle">Infrastructure as Code</text>
  
  <rect x="120" y="350" width="840" height="420" rx="12" fill="white" stroke="#FF9900" stroke-width="1"/>
  <text x="140" y="385" font-family="monospace" font-size="15" fill="#64748B"># template.yaml</text>
  <text x="140" y="415" font-family="monospace" font-size="15" fill="#FF9900">AWSTemplateFormatVersion: '2010-09-09'</text>
  <text x="140" y="445" font-family="monospace" font-size="15" fill="#FF9900">Description: Simple web server stack</text>
  <text x="140" y="490" font-family="monospace" font-size="15" fill="#FF9900">Parameters:</text>
  <text x="160" y="520" font-family="monospace" font-size="15" fill="#232F3E">  InstanceType:</text>
  <text x="180" y="550" font-family="monospace" font-size="15" fill="#232F3E">    Type: String</text>
  <text x="180" y="580" font-family="monospace" font-size="15" fill="#232F3E">    Default: t3.micro</text>
  <text x="140" y="625" font-family="monospace" font-size="15" fill="#FF9900">Resources:</text>
  <text x="160" y="655" font-family="monospace" font-size="15" fill="#232F3E">  WebServer:</text>
  <text x="180" y="685" font-family="monospace" font-size="15" fill="#232F3E">    Type: AWS::EC2::Instance</text>
  <text x="180" y="715" font-family="monospace" font-size="15" fill="#232F3E">    Properties:</text>
  <text x="200" y="745" font-family="monospace" font-size="15" fill="#232F3E">      InstanceType: !Ref InstanceType</text>
  
  <text x="120" y="815" font-family="system-ui, sans-serif" font-size="20" font-weight="600" fill="#FF9900">Key Intrinsic Functions:</text>
  
  <rect x="120" y="840" width="200" height="55" rx="8" fill="#232F3E"/>
  <text x="220" y="873" font-family="monospace" font-size="14" fill="#FF9900" text-anchor="middle">!Ref</text>
  
  <rect x="335" y="840" width="200" height="55" rx="8" fill="#232F3E"/>
  <text x="435" y="873" font-family="monospace" font-size="14" fill="#FF9900" text-anchor="middle">!GetAtt</text>
  
  <rect x="550" y="840" width="200" height="55" rx="8" fill="#232F3E"/>
  <text x="650" y="873" font-family="monospace" font-size="14" fill="#FF9900" text-anchor="middle">!Sub</text>
  
  <rect x="765" y="840" width="195" height="55" rx="8" fill="#232F3E"/>
  <text x="862" y="873" font-family="monospace" font-size="14" fill="#FF9900" text-anchor="middle">!If / !Condition</text>
  
  <text x="540" y="980" font-family="system-ui, sans-serif" font-size="20" font-weight="bold" fill="#FF9900" text-anchor="middle">DEV WEEKENDS</text>
  <text x="540" y="1010" font-family="system-ui, sans-serif" font-size="16" fill="#94A3B8" text-anchor="middle">@devweekends</text>
</svg>