<svg width="1584" height="396" viewBox="0 0 1584 396" fill="none" xmlns="http://www.w3.org/2000/svg">
  <rect width="1584" height="396" fill="#FAFAFA"/>
  
  <!-- Grid pattern -->
  <defs>
    <pattern id="grid-sessions" width="30" height="30" patternUnits="userSpaceOnUse">
      <path d="M 30 0 L 0 0 0 30" fill="none" stroke="#E5E5E5" stroke-width="0.5"/>
    </pattern>
  </defs>
  <rect width="1584" height="396" fill="url(#grid-sessions)" opacity="0.5"/>
  
  <!-- Dark accent on far left (will be behind photo) -->
  <rect x="0" y="0" width="600" height="396" fill="#18181B"/>
  
  <!-- Content on RIGHT side -->
  
  <!-- Branding -->
  <text x="1520" y="50" font-family="system-ui, sans-serif" font-size="14" font-weight="600" fill="#18181B" letter-spacing="3" text-anchor="end">DEV WEEKENDS</text>
  
  <!-- Live indicator -->
  <circle cx="1400" cy="90" r="6" fill="#EF4444"/>
  <text x="1520" y="95" font-family="system-ui, sans-serif" font-size="12" font-weight="600" fill="#EF4444" text-anchor="end">LIVE SESSIONS</text>
  
  <!-- Main headline -->
  <text x="1520" y="165" font-family="system-ui, sans-serif" font-size="40" font-weight="700" fill="#18181B" text-anchor="end">Weekly Free Sessions on</text>
  <text x="1520" y="220" font-family="system-ui, sans-serif" font-size="40" font-weight="700" fill="#18181B" text-anchor="end">DSA, System Design & More</text>
  
  <!-- Yellow highlight -->
  <rect x="1280" y="232" width="240" height="10" fill="#FEF08A" opacity="0.7"/>
  
  <!-- Topics -->
  <g transform="translate(900, 270)">
    <rect x="0" y="0" width="140" height="36" fill="#F4F4F5" rx="4"/>
    <text x="70" y="24" font-family="system-ui, sans-serif" font-size="12" font-weight="600" fill="#18181B" text-anchor="middle">System Design</text>
    
    <rect x="155" y="0" width="80" height="36" fill="#F4F4F5" rx="4"/>
    <text x="195" y="24" font-family="system-ui, sans-serif" font-size="12" font-weight="600" fill="#18181B" text-anchor="middle">DSA</text>
    
    <rect x="250" y="0" width="100" height="36" fill="#F4F4F5" rx="4"/>
    <text x="300" y="24" font-family="system-ui, sans-serif" font-size="12" font-weight="600" fill="#18181B" text-anchor="middle">DevOps</text>
    
    <rect x="365" y="0" width="80" height="36" fill="#F4F4F5" rx="4"/>
    <text x="405" y="24" font-family="system-ui, sans-serif" font-size="12" font-weight="600" fill="#18181B" text-anchor="middle">AWS</text>
    
    <rect x="460" y="0" width="155" height="36" fill="#FEF08A" rx="4"/>
    <text x="537" y="24" font-family="system-ui, sans-serif" font-size="12" font-weight="600" fill="#18181B" text-anchor="middle">Career Growth</text>
  </g>
  
  <!-- Stats -->
  <text x="1520" y="355" font-family="system-ui, sans-serif" font-size="16" fill="#71717A" text-anchor="end">Every Saturday & Sunday • 7 PM PKT • Discord Stage</text>
  
  <!-- CTA -->
  <rect x="920" y="330" width="180" height="46" fill="#18181B" rx="4"/>
  <text x="1010" y="360" font-family="system-ui, sans-serif" font-size="13" font-weight="600" fill="#FAFAFA" text-anchor="middle" letter-spacing="1">JOIN FREE →</text>
</svg>
