<svg width="1080" height="1080" viewBox="0 0 1080 1080" fill="none" xmlns="http://www.w3.org/2000/svg">
  <rect width="1080" height="1080" fill="#18181B"/>
  <rect x="0" y="0" width="8" height="1080" fill="#22C55E"/>
  
  <text x="60" y="80" font-family="system-ui, sans-serif" font-size="14" font-weight="600" fill="#FAFAFA" letter-spacing="3">DEV WEEKENDS</text>
  
  <rect x="60" y="140" width="200" height="40" fill="#22C55E"/>
  <text x="160" y="168" font-family="system-ui, sans-serif" font-size="12" font-weight="600" fill="#FAFAFA" text-anchor="middle" letter-spacing="2">DSA TECHNIQUE</text>
  
  <text x="60" y="320" font-family="system-ui, sans-serif" font-size="56" font-weight="700" fill="#FAFAFA">Two Pointers</text>
  
  <text x="60" y="400" font-family="system-ui, sans-serif" font-size="20" fill="#A1A1AA">Use two references to traverse data structure</text>
  
  <rect x="60" y="450" width="960" height="200" fill="#27272A" rx="8"/>
  <rect x="120" y="520" width="60" height="60" fill="#3F3F46" rx="4"/>
  <text x="150" y="560" font-family="monospace" font-size="20" fill="#FAFAFA" text-anchor="middle">1</text>
  <rect x="200" y="520" width="60" height="60" fill="#3F3F46" rx="4"/>
  <text x="230" y="560" font-family="monospace" font-size="20" fill="#FAFAFA" text-anchor="middle">2</text>
  <rect x="280" y="520" width="60" height="60" fill="#3F3F46" rx="4"/>
  <text x="310" y="560" font-family="monospace" font-size="20" fill="#FAFAFA" text-anchor="middle">3</text>
  <rect x="360" y="520" width="60" height="60" fill="#3F3F46" rx="4"/>
  <text x="390" y="560" font-family="monospace" font-size="20" fill="#FAFAFA" text-anchor="middle">4</text>
  <rect x="440" y="520" width="60" height="60" fill="#3F3F46" rx="4"/>
  <text x="470" y="560" font-family="monospace" font-size="20" fill="#FAFAFA" text-anchor="middle">5</text>
  
  <text x="150" y="620" font-family="system-ui, sans-serif" font-size="14" fill="#22C55E" text-anchor="middle">L</text>
  <text x="470" y="620" font-family="system-ui, sans-serif" font-size="14" fill="#EF4444" text-anchor="middle">R</text>
  
  <text x="60" y="720" font-family="system-ui, sans-serif" font-size="18" font-weight="600" fill="#22C55E">When to use:</text>
  <text x="60" y="760" font-family="system-ui, sans-serif" font-size="16" fill="#A1A1AA">• Sorted arrays</text>
  <text x="60" y="795" font-family="system-ui, sans-serif" font-size="16" fill="#A1A1AA">• Finding pairs with a specific sum</text>
  <text x="60" y="830" font-family="system-ui, sans-serif" font-size="16" fill="#A1A1AA">• Removing duplicates</text>
  <text x="60" y="865" font-family="system-ui, sans-serif" font-size="16" fill="#A1A1AA">• Container with most water</text>
  
  <text x="600" y="720" font-family="system-ui, sans-serif" font-size="18" font-weight="600" fill="#FAFAFA">Time: O(n)</text>
  <text x="600" y="760" font-family="system-ui, sans-serif" font-size="18" font-weight="600" fill="#FAFAFA">Space: O(1)</text>
  
  <text x="540" y="980" font-family="system-ui, sans-serif" font-size="14" fill="#52525B" text-anchor="middle">Save for your DSA prep | @devweekends</text>
</svg>