<svg width="1080" height="1080" viewBox="0 0 1080 1080" fill="none" xmlns="http://www.w3.org/2000/svg">
  <rect width="1080" height="1080" fill="#FAFAFA"/>
  <rect x="0" y="0" width="8" height="1080" fill="#18181B"/>
  
  <text x="60" y="80" font-family="system-ui, sans-serif" font-size="14" font-weight="600" fill="#18181B" letter-spacing="3">DEV WEEKENDS</text>
  
  <rect x="60" y="140" width="200" height="40" fill="#18181B"/>
  <text x="160" y="168" font-family="system-ui, sans-serif" font-size="12" font-weight="600" fill="#FAFAFA" text-anchor="middle" letter-spacing="2">DSA TECHNIQUE</text>
  
  <text x="60" y="320" font-family="system-ui, sans-serif" font-size="56" font-weight="700" fill="#18181B">Sliding Window</text>
  
  <text x="60" y="400" font-family="system-ui, sans-serif" font-size="20" fill="#71717A">Track a subset of data that moves through a larger set</text>
  
  <rect x="60" y="450" width="960" height="200" fill="#F4F4F5" rx="8"/>
  
  <rect x="120" y="520" width="60" height="60" fill="#E5E5E5" rx="4"/>
  <text x="150" y="560" font-family="monospace" font-size="20" fill="#71717A" text-anchor="middle">1</text>
  
  <rect x="200" y="510" width="260" height="80" fill="#FEF08A" stroke="#18181B" stroke-width="3" rx="4"/>
  <rect x="200" y="520" width="60" height="60" fill="none"/>
  <text x="230" y="560" font-family="monospace" font-size="20" fill="#18181B" text-anchor="middle">2</text>
  <rect x="280" y="520" width="60" height="60" fill="none"/>
  <text x="310" y="560" font-family="monospace" font-size="20" fill="#18181B" text-anchor="middle">3</text>
  <rect x="360" y="520" width="60" height="60" fill="none"/>
  <text x="390" y="560" font-family="monospace" font-size="20" fill="#18181B" text-anchor="middle">4</text>
  
  <rect x="480" y="520" width="60" height="60" fill="#E5E5E5" rx="4"/>
  <text x="510" y="560" font-family="monospace" font-size="20" fill="#71717A" text-anchor="middle">5</text>
  <rect x="560" y="520" width="60" height="60" fill="#E5E5E5" rx="4"/>
  <text x="590" y="560" font-family="monospace" font-size="20" fill="#71717A" text-anchor="middle">6</text>
  
  <text x="330" y="620" font-family="system-ui, sans-serif" font-size="14" fill="#18181B" text-anchor="middle">Window Size: 3</text>
  
  <text x="60" y="720" font-family="system-ui, sans-serif" font-size="18" font-weight="600" fill="#18181B">When to use:</text>
  <text x="60" y="760" font-family="system-ui, sans-serif" font-size="16" fill="#52525B">• Maximum sum subarray of size k</text>
  <text x="60" y="795" font-family="system-ui, sans-serif" font-size="16" fill="#52525B">• Longest substring without repeating chars</text>
  <text x="60" y="830" font-family="system-ui, sans-serif" font-size="16" fill="#52525B">• Minimum window substring</text>
  <text x="60" y="865" font-family="system-ui, sans-serif" font-size="16" fill="#52525B">• String anagrams</text>
  
  <rect x="700" y="700" width="280" height="100" fill="#18181B" rx="8"/>
  <text x="840" y="750" font-family="system-ui, sans-serif" font-size="18" font-weight="600" fill="#22C55E" text-anchor="middle">Time: O(n)</text>
  <text x="840" y="780" font-family="system-ui, sans-serif" font-size="18" font-weight="600" fill="#FAFAFA" text-anchor="middle">Space: O(1)</text>
  
  <text x="540" y="980" font-family="system-ui, sans-serif" font-size="14" fill="#71717A" text-anchor="middle">@devweekends</text>
</svg>