<svg width="1080" height="1080" viewBox="0 0 1080 1080" fill="none" xmlns="http://www.w3.org/2000/svg">
  <rect width="1080" height="1080" fill="#FAFAFA"/>
  <rect x="0" y="0" width="8" height="1080" fill="#18181B"/>
  
  <text x="60" y="80" font-family="system-ui, sans-serif" font-size="14" font-weight="600" fill="#18181B" letter-spacing="3">DEV WEEKENDS</text>
  
  <rect x="60" y="140" width="200" height="40" fill="#18181B"/>
  <text x="160" y="168" font-family="system-ui, sans-serif" font-size="12" font-weight="600" fill="#FAFAFA" text-anchor="middle" letter-spacing="2">DSA TECHNIQUE</text>
  
  <text x="60" y="320" font-family="system-ui, sans-serif" font-size="56" font-weight="700" fill="#18181B">DFS</text>
  <text x="60" y="380" font-family="system-ui, sans-serif" font-size="32" fill="#71717A">Depth-First Search</text>
  
  <rect x="60" y="430" width="460" height="400" fill="#F4F4F5" rx="8"/>
  
  <circle cx="290" cy="520" r="30" fill="#18181B"/>
  <text x="290" y="528" font-family="system-ui, sans-serif" font-size="16" fill="#FAFAFA" text-anchor="middle">1</text>
  
  <line x1="265" y1="545" x2="200" y2="600" stroke="#18181B" stroke-width="2"/>
  <line x1="315" y1="545" x2="380" y2="600" stroke="#18181B" stroke-width="2"/>
  
  <circle cx="180" cy="620" r="30" fill="#FEF08A"/>
  <text x="180" y="628" font-family="system-ui, sans-serif" font-size="16" fill="#18181B" text-anchor="middle">2</text>
  <circle cx="400" cy="620" r="30" fill="#18181B"/>
  <text x="400" y="628" font-family="system-ui, sans-serif" font-size="16" fill="#FAFAFA" text-anchor="middle">3</text>
  
  <line x1="155" y1="645" x2="120" y2="700" stroke="#18181B" stroke-width="2"/>
  <line x1="205" y1="645" x2="240" y2="700" stroke="#18181B" stroke-width="2"/>
  
  <circle cx="120" cy="720" r="30" fill="#FEF08A"/>
  <text x="120" y="728" font-family="system-ui, sans-serif" font-size="16" fill="#18181B" text-anchor="middle">4</text>
  <circle cx="240" cy="720" r="30" fill="#18181B"/>
  <text x="240" y="728" font-family="system-ui, sans-serif" font-size="16" fill="#FAFAFA" text-anchor="middle">5</text>
  
  <text x="290" y="800" font-family="system-ui, sans-serif" font-size="14" fill="#71717A" text-anchor="middle">Visit: 1 → 2 → 4 → 5 → 3</text>
  
  <rect x="560" y="430" width="460" height="400" fill="#18181B" rx="8"/>
  <text x="790" y="490" font-family="system-ui, sans-serif" font-size="20" font-weight="600" fill="#FAFAFA" text-anchor="middle">Use Cases</text>
  
  <text x="600" y="550" font-family="system-ui, sans-serif" font-size="16" fill="#A1A1AA">• Path finding</text>
  <text x="600" y="590" font-family="system-ui, sans-serif" font-size="16" fill="#A1A1AA">• Cycle detection</text>
  <text x="600" y="630" font-family="system-ui, sans-serif" font-size="16" fill="#A1A1AA">• Topological sort</text>
  <text x="600" y="670" font-family="system-ui, sans-serif" font-size="16" fill="#A1A1AA">• Connected components</text>
  <text x="600" y="710" font-family="system-ui, sans-serif" font-size="16" fill="#A1A1AA">• Maze solving</text>
  
  <text x="600" y="780" font-family="system-ui, sans-serif" font-size="16" fill="#22C55E">Time: O(V + E)</text>
  <text x="600" y="810" font-family="system-ui, sans-serif" font-size="16" fill="#FAFAFA">Space: O(V)</text>
  
  <text x="540" y="920" font-family="system-ui, sans-serif" font-size="18" fill="#18181B" text-anchor="middle">Goes deep before going wide</text>
  <text x="540" y="1000" font-family="system-ui, sans-serif" font-size="14" fill="#71717A" text-anchor="middle">@devweekends</text>
</svg>