<svg width="1080" height="1080" viewBox="0 0 1080 1080" fill="none" xmlns="http://www.w3.org/2000/svg">
  <rect width="1080" height="1080" fill="#18181B"/>
  
  <text x="60" y="80" font-family="system-ui, sans-serif" font-size="14" font-weight="600" fill="#FAFAFA" letter-spacing="3">DEV WEEKENDS</text>
  
  <rect x="60" y="140" width="200" height="40" fill="#22C55E"/>
  <text x="160" y="168" font-family="system-ui, sans-serif" font-size="12" font-weight="600" fill="#FAFAFA" text-anchor="middle" letter-spacing="2">DSA TECHNIQUE</text>
  
  <text x="60" y="320" font-family="system-ui, sans-serif" font-size="56" font-weight="700" fill="#FAFAFA">Divide &amp;</text>
  <text x="60" y="390" font-family="system-ui, sans-serif" font-size="56" font-weight="700" fill="#22C55E">Conquer</text>
  
  <text x="60" y="460" font-family="system-ui, sans-serif" font-size="20" fill="#A1A1AA">Break problem into smaller subproblems, solve, combine</text>
  
  <rect x="60" y="510" width="960" height="300" fill="#27272A" rx="8"/>
  
  <rect x="360" y="540" width="360" height="50" fill="#FEF08A" rx="4"/>
  <text x="540" y="572" font-family="system-ui, sans-serif" font-size="16" fill="#18181B" text-anchor="middle">Original Problem</text>
  
  <line x1="450" y1="590" x2="350" y2="630" stroke="#FAFAFA" stroke-width="2"/>
  <line x1="630" y1="590" x2="730" y2="630" stroke="#FAFAFA" stroke-width="2"/>
  
  <rect x="200" y="640" width="200" height="40" fill="#3F3F46" rx="4"/>
  <text x="300" y="668" font-family="system-ui, sans-serif" font-size="14" fill="#FAFAFA" text-anchor="middle">Subproblem 1</text>
  <rect x="680" y="640" width="200" height="40" fill="#3F3F46" rx="4"/>
  <text x="780" y="668" font-family="system-ui, sans-serif" font-size="14" fill="#FAFAFA" text-anchor="middle">Subproblem 2</text>
  
  <line x1="300" y1="680" x2="300" y2="720" stroke="#FAFAFA" stroke-width="2"/>
  <line x1="780" y1="680" x2="780" y2="720" stroke="#FAFAFA" stroke-width="2"/>
  
  <rect x="200" y="720" width="200" height="40" fill="#22C55E" rx="4"/>
  <text x="300" y="748" font-family="system-ui, sans-serif" font-size="14" fill="#FAFAFA" text-anchor="middle">Solution 1</text>
  <rect x="680" y="720" width="200" height="40" fill="#22C55E" rx="4"/>
  <text x="780" y="748" font-family="system-ui, sans-serif" font-size="14" fill="#FAFAFA" text-anchor="middle">Solution 2</text>
  
  <line x1="350" y1="760" x2="450" y2="790" stroke="#FAFAFA" stroke-width="2"/>
  <line x1="730" y1="760" x2="630" y2="790" stroke="#FAFAFA" stroke-width="2"/>
  
  <text x="540" y="780" font-family="system-ui, sans-serif" font-size="14" fill="#A1A1AA" text-anchor="middle">COMBINE</text>
  
  <text x="60" y="880" font-family="system-ui, sans-serif" font-size="18" font-weight="600" fill="#22C55E">Classic Problems:</text>
  <text x="60" y="920" font-family="system-ui, sans-serif" font-size="16" fill="#A1A1AA">Merge Sort | Quick Sort | Binary Search | Strassen's Matrix</text>
  <text x="60" y="955" font-family="system-ui, sans-serif" font-size="16" fill="#A1A1AA">Maximum Subarray | Closest Pair of Points</text>
  
  <text x="700" y="920" font-family="system-ui, sans-serif" font-size="16" fill="#FAFAFA">Time: O(n log n) typical</text>
  
  <text x="540" y="1020" font-family="system-ui, sans-serif" font-size="14" fill="#52525B" text-anchor="middle">@devweekends</text>
</svg>