<svg width="1080" height="1080" viewBox="0 0 1080 1080" fill="none" xmlns="http://www.w3.org/2000/svg">
  <rect width="1080" height="1080" fill="#FAFAFA"/>
  
  <text x="60" y="80" font-family="system-ui, sans-serif" font-size="14" font-weight="600" fill="#18181B" letter-spacing="3">DEV WEEKENDS</text>
  
  <rect x="60" y="140" width="200" height="40" fill="#18181B"/>
  <text x="160" y="168" font-family="system-ui, sans-serif" font-size="12" font-weight="600" fill="#FAFAFA" text-anchor="middle" letter-spacing="2">DSA TECHNIQUE</text>
  
  <text x="60" y="320" font-family="system-ui, sans-serif" font-size="56" font-weight="700" fill="#18181B">Hash Map</text>
  
  <text x="60" y="400" font-family="system-ui, sans-serif" font-size="20" fill="#71717A">O(1) average lookup, insert, delete</text>
  
  <rect x="60" y="450" width="500" height="350" fill="#F4F4F5" rx="8"/>
  
  <text x="310" y="500" font-family="system-ui, sans-serif" font-size="18" font-weight="600" fill="#18181B" text-anchor="middle">Hash Table Structure</text>
  
  <rect x="100" y="530" width="60" height="40" fill="#18181B" rx="4"/>
  <text x="130" y="558" font-family="system-ui, sans-serif" font-size="14" fill="#FAFAFA" text-anchor="middle">0</text>
  <rect x="180" y="530" width="340" height="40" fill="#E5E5E5" rx="4"/>
  
  <rect x="100" y="580" width="60" height="40" fill="#18181B" rx="4"/>
  <text x="130" y="608" font-family="system-ui, sans-serif" font-size="14" fill="#FAFAFA" text-anchor="middle">1</text>
  <rect x="180" y="580" width="340" height="40" fill="#FEF08A" rx="4"/>
  <text x="350" y="608" font-family="system-ui, sans-serif" font-size="14" fill="#18181B" text-anchor="middle">"apple" → 5</text>
  
  <rect x="100" y="630" width="60" height="40" fill="#18181B" rx="4"/>
  <text x="130" y="658" font-family="system-ui, sans-serif" font-size="14" fill="#FAFAFA" text-anchor="middle">2</text>
  <rect x="180" y="630" width="340" height="40" fill="#E5E5E5" rx="4"/>
  
  <rect x="100" y="680" width="60" height="40" fill="#18181B" rx="4"/>
  <text x="130" y="708" font-family="system-ui, sans-serif" font-size="14" fill="#FAFAFA" text-anchor="middle">3</text>
  <rect x="180" y="680" width="340" height="40" fill="#FEF08A" rx="4"/>
  <text x="350" y="708" font-family="system-ui, sans-serif" font-size="14" fill="#18181B" text-anchor="middle">"banana" → 3</text>
  
  <rect x="100" y="730" width="60" height="40" fill="#18181B" rx="4"/>
  <text x="130" y="758" font-family="system-ui, sans-serif" font-size="14" fill="#FAFAFA" text-anchor="middle">4</text>
  <rect x="180" y="730" width="340" height="40" fill="#E5E5E5" rx="4"/>
  
  <rect x="600" y="450" width="420" height="350" fill="#18181B" rx="8"/>
  <text x="810" y="500" font-family="system-ui, sans-serif" font-size="18" font-weight="600" fill="#FAFAFA" text-anchor="middle">Use Cases</text>
  
  <text x="640" y="560" font-family="system-ui, sans-serif" font-size="16" fill="#A1A1AA">• Two Sum problem</text>
  <text x="640" y="600" font-family="system-ui, sans-serif" font-size="16" fill="#A1A1AA">• Frequency counting</text>
  <text x="640" y="640" font-family="system-ui, sans-serif" font-size="16" fill="#A1A1AA">• Anagram detection</text>
  <text x="640" y="680" font-family="system-ui, sans-serif" font-size="16" fill="#A1A1AA">• Caching (LRU)</text>
  <text x="640" y="720" font-family="system-ui, sans-serif" font-size="16" fill="#A1A1AA">• Group elements</text>
  
  <text x="640" y="780" font-family="system-ui, sans-serif" font-size="14" fill="#22C55E">Avg: O(1) | Worst: O(n)</text>
  
  <text x="60" y="880" font-family="system-ui, sans-serif" font-size="16" fill="#18181B">Trade-off: Space O(n) for Time O(1)</text>
  
  <text x="540" y="1000" font-family="system-ui, sans-serif" font-size="14" fill="#71717A" text-anchor="middle">@devweekends</text>
</svg>