<svg width="1080" height="1080" viewBox="0 0 1080 1080" fill="none" xmlns="http://www.w3.org/2000/svg">
  <rect width="1080" height="1080" fill="#18181B"/>
  
  <text x="60" y="80" font-family="system-ui, sans-serif" font-size="14" font-weight="600" fill="#FAFAFA" letter-spacing="3">DEV WEEKENDS</text>
  
  <rect x="60" y="140" width="200" height="40" fill="#3B82F6"/>
  <text x="160" y="168" font-family="system-ui, sans-serif" font-size="12" font-weight="600" fill="#FAFAFA" text-anchor="middle" letter-spacing="2">SYSTEM DESIGN</text>
  
  <text x="60" y="320" font-family="system-ui, sans-serif" font-size="56" font-weight="700" fill="#FAFAFA">Load</text>
  <text x="60" y="390" font-family="system-ui, sans-serif" font-size="56" font-weight="700" fill="#3B82F6">Balancing</text>
  
  <text x="60" y="460" font-family="system-ui, sans-serif" font-size="20" fill="#A1A1AA">Distribute traffic across multiple servers</text>
  
  <rect x="60" y="500" width="960" height="280" fill="#27272A" rx="8"/>
  
  <rect x="420" y="530" width="240" height="50" fill="#3B82F6" rx="4"/>
  <text x="540" y="563" font-family="system-ui, sans-serif" font-size="16" fill="#FAFAFA" text-anchor="middle">Load Balancer</text>
  
  <text x="270" y="555" font-family="system-ui, sans-serif" font-size="14" fill="#A1A1AA">Clients →</text>
  
  <line x1="540" y1="580" x2="300" y2="640" stroke="#FAFAFA" stroke-width="2"/>
  <line x1="540" y1="580" x2="540" y2="640" stroke="#FAFAFA" stroke-width="2"/>
  <line x1="540" y1="580" x2="780" y2="640" stroke="#FAFAFA" stroke-width="2"/>
  
  <rect x="200" y="660" width="160" height="80" fill="#22C55E" rx="4"/>
  <text x="280" y="700" font-family="system-ui, sans-serif" font-size="14" fill="#FAFAFA" text-anchor="middle">Server 1</text>
  <text x="280" y="725" font-family="system-ui, sans-serif" font-size="12" fill="#FAFAFA" text-anchor="middle">Healthy</text>
  
  <rect x="460" y="660" width="160" height="80" fill="#22C55E" rx="4"/>
  <text x="540" y="700" font-family="system-ui, sans-serif" font-size="14" fill="#FAFAFA" text-anchor="middle">Server 2</text>
  <text x="540" y="725" font-family="system-ui, sans-serif" font-size="12" fill="#FAFAFA" text-anchor="middle">Healthy</text>
  
  <rect x="720" y="660" width="160" height="80" fill="#22C55E" rx="4"/>
  <text x="800" y="700" font-family="system-ui, sans-serif" font-size="14" fill="#FAFAFA" text-anchor="middle">Server 3</text>
  <text x="800" y="725" font-family="system-ui, sans-serif" font-size="12" fill="#FAFAFA" text-anchor="middle">Healthy</text>
  
  <rect x="60" y="810" width="480" height="150" fill="#27272A" rx="8"/>
  <text x="300" y="860" font-family="system-ui, sans-serif" font-size="18" font-weight="600" fill="#FAFAFA" text-anchor="middle">Strategies</text>
  <text x="100" y="910" font-family="system-ui, sans-serif" font-size="14" fill="#A1A1AA">• Round Robin</text>
  <text x="100" y="940" font-family="system-ui, sans-serif" font-size="14" fill="#A1A1AA">• Least Connections</text>
  <text x="300" y="910" font-family="system-ui, sans-serif" font-size="14" fill="#A1A1AA">• IP Hash</text>
  <text x="300" y="940" font-family="system-ui, sans-serif" font-size="14" fill="#A1A1AA">• Weighted</text>
  
  <rect x="560" y="810" width="460" height="150" fill="#27272A" rx="8"/>
  <text x="790" y="860" font-family="system-ui, sans-serif" font-size="18" font-weight="600" fill="#3B82F6" text-anchor="middle">Tools</text>
  <text x="600" y="910" font-family="system-ui, sans-serif" font-size="14" fill="#A1A1AA">NGINX | HAProxy | AWS ELB</text>
  <text x="600" y="940" font-family="system-ui, sans-serif" font-size="14" fill="#A1A1AA">Cloudflare | F5 | Traefik</text>
  
  <text x="540" y="1020" font-family="system-ui, sans-serif" font-size="14" fill="#52525B" text-anchor="middle">@devweekends</text>
</svg>