<svg width="1080" height="1080" viewBox="0 0 1080 1080" fill="none" xmlns="http://www.w3.org/2000/svg">
  <rect width="1080" height="1080" fill="#FAFAFA"/>
  
  <text x="60" y="80" font-family="system-ui, sans-serif" font-size="14" font-weight="600" fill="#18181B" letter-spacing="3">DEV WEEKENDS</text>
  
  <rect x="60" y="140" width="200" height="40" fill="#18181B"/>
  <text x="160" y="168" font-family="system-ui, sans-serif" font-size="12" font-weight="600" fill="#FAFAFA" text-anchor="middle" letter-spacing="2">SYSTEM DESIGN</text>
  
  <text x="60" y="320" font-family="system-ui, sans-serif" font-size="56" font-weight="700" fill="#18181B">Caching</text>
  <text x="60" y="390" font-family="system-ui, sans-serif" font-size="56" font-weight="700" fill="#EF4444">Strategies</text>
  
  <text x="60" y="460" font-family="system-ui, sans-serif" font-size="20" fill="#71717A">Store frequently accessed data closer to the user</text>
  
  <rect x="60" y="500" width="480" height="200" fill="#F4F4F5" rx="8"/>
  <text x="300" y="550" font-family="system-ui, sans-serif" font-size="18" font-weight="600" fill="#18181B" text-anchor="middle">Write Strategies</text>
  
  <rect x="100" y="580" width="180" height="100" fill="#18181B" rx="4"/>
  <text x="190" y="620" font-family="system-ui, sans-serif" font-size="14" fill="#FAFAFA" text-anchor="middle">Write-Through</text>
  <text x="190" y="650" font-family="system-ui, sans-serif" font-size="11" fill="#71717A" text-anchor="middle">Cache + DB sync</text>
  
  <rect x="320" y="580" width="180" height="100" fill="#18181B" rx="4"/>
  <text x="410" y="620" font-family="system-ui, sans-serif" font-size="14" fill="#FAFAFA" text-anchor="middle">Write-Behind</text>
  <text x="410" y="650" font-family="system-ui, sans-serif" font-size="11" fill="#71717A" text-anchor="middle">Async DB write</text>
  
  <rect x="560" y="500" width="460" height="200" fill="#18181B" rx="8"/>
  <text x="790" y="550" font-family="system-ui, sans-serif" font-size="18" font-weight="600" fill="#EF4444" text-anchor="middle">Eviction Policies</text>
  <text x="600" y="600" font-family="system-ui, sans-serif" font-size="16" fill="#A1A1AA">LRU - Least Recently Used</text>
  <text x="600" y="640" font-family="system-ui, sans-serif" font-size="16" fill="#A1A1AA">LFU - Least Frequently Used</text>
  <text x="600" y="680" font-family="system-ui, sans-serif" font-size="16" fill="#A1A1AA">TTL - Time To Live</text>
  
  <rect x="60" y="720" width="960" height="160" fill="#F4F4F5" rx="8"/>
  <text x="540" y="770" font-family="system-ui, sans-serif" font-size="18" font-weight="600" fill="#18181B" text-anchor="middle">Cache Levels</text>
  
  <rect x="100" y="800" width="200" height="60" fill="#22C55E" rx="4"/>
  <text x="200" y="838" font-family="system-ui, sans-serif" font-size="14" fill="#FAFAFA" text-anchor="middle">L1: Browser/CDN</text>
  
  <rect x="340" y="800" width="200" height="60" fill="#3B82F6" rx="4"/>
  <text x="440" y="838" font-family="system-ui, sans-serif" font-size="14" fill="#FAFAFA" text-anchor="middle">L2: App Cache</text>
  
  <rect x="580" y="800" width="200" height="60" fill="#A855F7" rx="4"/>
  <text x="680" y="838" font-family="system-ui, sans-serif" font-size="14" fill="#FAFAFA" text-anchor="middle">L3: Redis/Memcached</text>
  
  <rect x="820" y="800" width="160" height="60" fill="#71717A" rx="4"/>
  <text x="900" y="838" font-family="system-ui, sans-serif" font-size="14" fill="#FAFAFA" text-anchor="middle">DB</text>
  
  <text x="60" y="940" font-family="system-ui, sans-serif" font-size="16" fill="#18181B">Cache invalidation is one of the hardest problems in CS</text>
  
  <text x="540" y="1020" font-family="system-ui, sans-serif" font-size="14" fill="#71717A" text-anchor="middle">@devweekends</text>
</svg>