<svg width="1080" height="1080" viewBox="0 0 1080 1080" fill="none" xmlns="http://www.w3.org/2000/svg">
  <rect width="1080" height="1080" fill="#18181B"/>
  
  <text x="60" y="80" font-family="system-ui, sans-serif" font-size="14" font-weight="600" fill="#FAFAFA" letter-spacing="3">DEV WEEKENDS</text>
  
  <rect x="60" y="140" width="200" height="40" fill="#3B82F6"/>
  <text x="160" y="168" font-family="system-ui, sans-serif" font-size="12" font-weight="600" fill="#FAFAFA" text-anchor="middle" letter-spacing="2">SYSTEM DESIGN</text>
  
  <text x="60" y="320" font-family="system-ui, sans-serif" font-size="56" font-weight="700" fill="#FAFAFA">Database</text>
  <text x="60" y="390" font-family="system-ui, sans-serif" font-size="56" font-weight="700" fill="#3B82F6">Sharding</text>
  
  <text x="60" y="460" font-family="system-ui, sans-serif" font-size="20" fill="#A1A1AA">Horizontal partitioning to distribute data across servers</text>
  
  <rect x="60" y="500" width="960" height="220" fill="#27272A" rx="8"/>
  
  <rect x="420" y="530" width="240" height="50" fill="#FEF08A" rx="4"/>
  <text x="540" y="563" font-family="system-ui, sans-serif" font-size="16" fill="#18181B" text-anchor="middle">User Data</text>
  
  <line x1="400" y1="580" x2="200" y2="620" stroke="#FAFAFA" stroke-width="2"/>
  <line x1="540" y1="580" x2="540" y2="620" stroke="#FAFAFA" stroke-width="2"/>
  <line x1="680" y1="580" x2="880" y2="620" stroke="#FAFAFA" stroke-width="2"/>
  
  <text x="540" y="610" font-family="system-ui, sans-serif" font-size="12" fill="#A1A1AA" text-anchor="middle">Shard Key: user_id % 3</text>
  
  <rect x="100" y="640" width="200" height="60" fill="#3B82F6" rx="4"/>
  <text x="200" y="678" font-family="system-ui, sans-serif" font-size="14" fill="#FAFAFA" text-anchor="middle">Shard 0 (A-H)</text>
  
  <rect x="440" y="640" width="200" height="60" fill="#22C55E" rx="4"/>
  <text x="540" y="678" font-family="system-ui, sans-serif" font-size="14" fill="#FAFAFA" text-anchor="middle">Shard 1 (I-Q)</text>
  
  <rect x="780" y="640" width="200" height="60" fill="#A855F7" rx="4"/>
  <text x="880" y="678" font-family="system-ui, sans-serif" font-size="14" fill="#FAFAFA" text-anchor="middle">Shard 2 (R-Z)</text>
  
  <rect x="60" y="750" width="480" height="200" fill="#27272A" rx="8"/>
  <text x="300" y="800" font-family="system-ui, sans-serif" font-size="18" font-weight="600" fill="#FEF08A" text-anchor="middle">Sharding Strategies</text>
  <text x="100" y="850" font-family="system-ui, sans-serif" font-size="16" fill="#A1A1AA">• Hash-based (Consistent Hashing)</text>
  <text x="100" y="890" font-family="system-ui, sans-serif" font-size="16" fill="#A1A1AA">• Range-based (Time/ID ranges)</text>
  <text x="100" y="930" font-family="system-ui, sans-serif" font-size="16" fill="#A1A1AA">• Directory-based (Lookup table)</text>
  
  <rect x="560" y="750" width="460" height="200" fill="#27272A" rx="8"/>
  <text x="790" y="800" font-family="system-ui, sans-serif" font-size="18" font-weight="600" fill="#EF4444" text-anchor="middle">Challenges</text>
  <text x="600" y="850" font-family="system-ui, sans-serif" font-size="16" fill="#A1A1AA">• Cross-shard queries</text>
  <text x="600" y="890" font-family="system-ui, sans-serif" font-size="16" fill="#A1A1AA">• Rebalancing data</text>
  <text x="600" y="930" font-family="system-ui, sans-serif" font-size="16" fill="#A1A1AA">• Joins across shards</text>
  
  <text x="540" y="1020" font-family="system-ui, sans-serif" font-size="14" fill="#52525B" text-anchor="middle">@devweekends</text>
</svg>