<svg width="1080" height="1080" viewBox="0 0 1080 1080" fill="none" xmlns="http://www.w3.org/2000/svg">
  <rect width="1080" height="1080" fill="#18181B"/>
  
  <text x="60" y="80" font-family="system-ui, sans-serif" font-size="14" font-weight="600" fill="#FAFAFA" letter-spacing="3">DEV WEEKENDS</text>
  
  <rect x="60" y="140" width="200" height="40" fill="#3B82F6"/>
  <text x="160" y="168" font-family="system-ui, sans-serif" font-size="12" font-weight="600" fill="#FAFAFA" text-anchor="middle" letter-spacing="2">SYSTEM DESIGN</text>
  
  <text x="60" y="320" font-family="system-ui, sans-serif" font-size="56" font-weight="700" fill="#FAFAFA">Message</text>
  <text x="60" y="390" font-family="system-ui, sans-serif" font-size="56" font-weight="700" fill="#22C55E">Queues</text>
  
  <text x="60" y="460" font-family="system-ui, sans-serif" font-size="20" fill="#A1A1AA">Async communication between services</text>
  
  <rect x="60" y="500" width="960" height="250" fill="#27272A" rx="8"/>
  
  <rect x="120" y="580" width="180" height="100" fill="#3B82F6" rx="4"/>
  <text x="210" y="620" font-family="system-ui, sans-serif" font-size="14" fill="#FAFAFA" text-anchor="middle">Producer</text>
  <text x="210" y="650" font-family="system-ui, sans-serif" font-size="12" fill="#A1A1AA" text-anchor="middle">Service A</text>
  
  <line x1="300" y1="630" x2="380" y2="630" stroke="#FAFAFA" stroke-width="2"/>
  <polygon points="380,625 390,630 380,635" fill="#FAFAFA"/>
  
  <rect x="400" y="550" width="280" height="160" fill="#FEF08A" rx="4"/>
  <text x="540" y="590" font-family="system-ui, sans-serif" font-size="16" font-weight="600" fill="#18181B" text-anchor="middle">Message Queue</text>
  <rect x="430" y="620" width="60" height="40" fill="#18181B" rx="2"/>
  <rect x="500" y="620" width="60" height="40" fill="#18181B" rx="2"/>
  <rect x="570" y="620" width="60" height="40" fill="#18181B" rx="2"/>
  <text x="540" y="690" font-family="system-ui, sans-serif" font-size="12" fill="#52525B" text-anchor="middle">FIFO Processing</text>
  
  <line x1="680" y1="630" x2="760" y2="630" stroke="#FAFAFA" stroke-width="2"/>
  <polygon points="760,625 770,630 760,635" fill="#FAFAFA"/>
  
  <rect x="780" y="580" width="180" height="100" fill="#22C55E" rx="4"/>
  <text x="870" y="620" font-family="system-ui, sans-serif" font-size="14" fill="#FAFAFA" text-anchor="middle">Consumer</text>
  <text x="870" y="650" font-family="system-ui, sans-serif" font-size="12" fill="#A1A1AA" text-anchor="middle">Service B</text>
  
  <rect x="60" y="780" width="480" height="180" fill="#27272A" rx="8"/>
  <text x="300" y="830" font-family="system-ui, sans-serif" font-size="18" font-weight="600" fill="#FEF08A" text-anchor="middle">Benefits</text>
  <text x="100" y="880" font-family="system-ui, sans-serif" font-size="15" fill="#A1A1AA">• Decoupling services</text>
  <text x="100" y="915" font-family="system-ui, sans-serif" font-size="15" fill="#A1A1AA">• Buffer for traffic spikes</text>
  <text x="100" y="950" font-family="system-ui, sans-serif" font-size="15" fill="#A1A1AA">• Retry failed operations</text>
  
  <rect x="560" y="780" width="460" height="180" fill="#27272A" rx="8"/>
  <text x="790" y="830" font-family="system-ui, sans-serif" font-size="18" font-weight="600" fill="#3B82F6" text-anchor="middle">Popular Solutions</text>
  <text x="600" y="880" font-family="system-ui, sans-serif" font-size="15" fill="#A1A1AA">RabbitMQ | Apache Kafka</text>
  <text x="600" y="915" font-family="system-ui, sans-serif" font-size="15" fill="#A1A1AA">Amazon SQS | Redis Streams</text>
  <text x="600" y="950" font-family="system-ui, sans-serif" font-size="15" fill="#A1A1AA">Google Pub/Sub</text>
  
  <text x="540" y="1020" font-family="system-ui, sans-serif" font-size="14" fill="#52525B" text-anchor="middle">@devweekends</text>
</svg>