<svg width="1080" height="1080" viewBox="0 0 1080 1080" fill="none" xmlns="http://www.w3.org/2000/svg">
  <rect width="1080" height="1080" fill="#FAFAFA"/>
  
  <text x="60" y="80" font-family="system-ui, sans-serif" font-size="14" font-weight="600" fill="#18181B" letter-spacing="3">DEV WEEKENDS</text>
  
  <rect x="60" y="140" width="200" height="40" fill="#18181B"/>
  <text x="160" y="168" font-family="system-ui, sans-serif" font-size="12" font-weight="600" fill="#FAFAFA" text-anchor="middle" letter-spacing="2">SYSTEM DESIGN</text>
  
  <text x="60" y="320" font-family="system-ui, sans-serif" font-size="56" font-weight="700" fill="#18181B">API</text>
  <text x="60" y="390" font-family="system-ui, sans-serif" font-size="56" font-weight="700" fill="#22C55E">Gateway</text>
  
  <text x="60" y="460" font-family="system-ui, sans-serif" font-size="20" fill="#71717A">Single entry point for all client requests</text>
  
  <rect x="60" y="500" width="960" height="300" fill="#F4F4F5" rx="8"/>
  
  <rect x="120" y="600" width="150" height="80" fill="#3B82F6" rx="4"/>
  <text x="195" y="648" font-family="system-ui, sans-serif" font-size="14" fill="#FAFAFA" text-anchor="middle">Clients</text>
  
  <line x1="270" y1="640" x2="340" y2="640" stroke="#18181B" stroke-width="2"/>
  
  <rect x="350" y="540" width="200" height="200" fill="#22C55E" rx="4"/>
  <text x="450" y="580" font-family="system-ui, sans-serif" font-size="16" font-weight="600" fill="#FAFAFA" text-anchor="middle">API Gateway</text>
  <text x="450" y="620" font-family="system-ui, sans-serif" font-size="11" fill="#FAFAFA" text-anchor="middle">Auth | Rate Limit</text>
  <text x="450" y="650" font-family="system-ui, sans-serif" font-size="11" fill="#FAFAFA" text-anchor="middle">Routing | SSL</text>
  <text x="450" y="680" font-family="system-ui, sans-serif" font-size="11" fill="#FAFAFA" text-anchor="middle">Logging | Caching</text>
  <text x="450" y="710" font-family="system-ui, sans-serif" font-size="11" fill="#FAFAFA" text-anchor="middle">Transform</text>
  
  <line x1="550" y1="580" x2="640" y2="560" stroke="#18181B" stroke-width="2"/>
  <line x1="550" y1="640" x2="640" y2="640" stroke="#18181B" stroke-width="2"/>
  <line x1="550" y1="700" x2="640" y2="720" stroke="#18181B" stroke-width="2"/>
  
  <rect x="660" y="530" width="180" height="50" fill="#18181B" rx="4"/>
  <text x="750" y="562" font-family="system-ui, sans-serif" font-size="13" fill="#FAFAFA" text-anchor="middle">User Service</text>
  
  <rect x="660" y="610" width="180" height="50" fill="#18181B" rx="4"/>
  <text x="750" y="642" font-family="system-ui, sans-serif" font-size="13" fill="#FAFAFA" text-anchor="middle">Order Service</text>
  
  <rect x="660" y="690" width="180" height="50" fill="#18181B" rx="4"/>
  <text x="750" y="722" font-family="system-ui, sans-serif" font-size="13" fill="#FAFAFA" text-anchor="middle">Payment Service</text>
  
  <rect x="860" y="550" width="140" height="180" fill="#E5E5E5" rx="4"/>
  <text x="930" y="650" font-family="system-ui, sans-serif" font-size="12" fill="#52525B" text-anchor="middle">Microservices</text>
  
  <rect x="60" y="830" width="960" height="130" fill="#18181B" rx="8"/>
  <text x="540" y="880" font-family="system-ui, sans-serif" font-size="18" font-weight="600" fill="#22C55E" text-anchor="middle">Popular API Gateways</text>
  <text x="540" y="930" font-family="system-ui, sans-serif" font-size="16" fill="#A1A1AA" text-anchor="middle">Kong | AWS API Gateway | NGINX | Apigee | Traefik | Express Gateway</text>
  
  <text x="540" y="1020" font-family="system-ui, sans-serif" font-size="14" fill="#71717A" text-anchor="middle">@devweekends</text>
</svg>