<svg width="1080" height="1080" viewBox="0 0 1080 1080" fill="none" xmlns="http://www.w3.org/2000/svg">
  <rect width="1080" height="1080" fill="#FAFAFA"/>
  
  <text x="60" y="80" font-family="system-ui, sans-serif" font-size="14" font-weight="600" fill="#18181B" letter-spacing="3">DEV WEEKENDS</text>
  
  <rect x="60" y="140" width="200" height="40" fill="#18181B"/>
  <text x="160" y="168" font-family="system-ui, sans-serif" font-size="12" font-weight="600" fill="#FAFAFA" text-anchor="middle" letter-spacing="2">SYSTEM DESIGN</text>
  
  <text x="60" y="320" font-family="system-ui, sans-serif" font-size="56" font-weight="700" fill="#18181B">Microservices</text>
  <text x="60" y="390" font-family="system-ui, sans-serif" font-size="56" font-weight="700" fill="#3B82F6">Architecture</text>
  
  <text x="60" y="460" font-family="system-ui, sans-serif" font-size="20" fill="#71717A">Small, independent services that do one thing well</text>
  
  <rect x="60" y="500" width="960" height="280" fill="#F4F4F5" rx="8"/>
  
  <rect x="120" y="540" width="160" height="100" fill="#22C55E" rx="4"/>
  <text x="200" y="580" font-family="system-ui, sans-serif" font-size="14" fill="#FAFAFA" text-anchor="middle">Auth</text>
  <text x="200" y="610" font-family="system-ui, sans-serif" font-size="11" fill="#FAFAFA" text-anchor="middle">Service</text>
  
  <rect x="320" y="540" width="160" height="100" fill="#3B82F6" rx="4"/>
  <text x="400" y="580" font-family="system-ui, sans-serif" font-size="14" fill="#FAFAFA" text-anchor="middle">User</text>
  <text x="400" y="610" font-family="system-ui, sans-serif" font-size="11" fill="#FAFAFA" text-anchor="middle">Service</text>
  
  <rect x="520" y="540" width="160" height="100" fill="#A855F7" rx="4"/>
  <text x="600" y="580" font-family="system-ui, sans-serif" font-size="14" fill="#FAFAFA" text-anchor="middle">Product</text>
  <text x="600" y="610" font-family="system-ui, sans-serif" font-size="11" fill="#FAFAFA" text-anchor="middle">Service</text>
  
  <rect x="720" y="540" width="160" height="100" fill="#EF4444" rx="4"/>
  <text x="800" y="580" font-family="system-ui, sans-serif" font-size="14" fill="#FAFAFA" text-anchor="middle">Order</text>
  <text x="800" y="610" font-family="system-ui, sans-serif" font-size="11" fill="#FAFAFA" text-anchor="middle">Service</text>
  
  <rect x="220" y="680" width="160" height="80" fill="#FEF08A" rx="4"/>
  <text x="300" y="730" font-family="system-ui, sans-serif" font-size="14" fill="#18181B" text-anchor="middle">Payment</text>
  
  <rect x="460" y="680" width="160" height="80" fill="#FEF08A" rx="4"/>
  <text x="540" y="730" font-family="system-ui, sans-serif" font-size="14" fill="#18181B" text-anchor="middle">Notification</text>
  
  <rect x="700" y="680" width="160" height="80" fill="#FEF08A" rx="4"/>
  <text x="780" y="730" font-family="system-ui, sans-serif" font-size="14" fill="#18181B" text-anchor="middle">Analytics</text>
  
  <rect x="60" y="810" width="480" height="160" fill="#18181B" rx="8"/>
  <text x="300" y="860" font-family="system-ui, sans-serif" font-size="18" font-weight="600" fill="#22C55E" text-anchor="middle">Pros</text>
  <text x="100" y="900" font-family="system-ui, sans-serif" font-size="14" fill="#A1A1AA">• Independent deployment</text>
  <text x="100" y="930" font-family="system-ui, sans-serif" font-size="14" fill="#A1A1AA">• Technology flexibility</text>
  <text x="100" y="960" font-family="system-ui, sans-serif" font-size="14" fill="#A1A1AA">• Better fault isolation</text>
  
  <rect x="560" y="810" width="460" height="160" fill="#F4F4F5" rx="8"/>
  <text x="790" y="860" font-family="system-ui, sans-serif" font-size="18" font-weight="600" fill="#EF4444" text-anchor="middle">Cons</text>
  <text x="600" y="900" font-family="system-ui, sans-serif" font-size="14" fill="#52525B">• Network complexity</text>
  <text x="600" y="930" font-family="system-ui, sans-serif" font-size="14" fill="#52525B">• Data consistency challenges</text>
  <text x="600" y="960" font-family="system-ui, sans-serif" font-size="14" fill="#52525B">• Operational overhead</text>
  
  <text x="540" y="1040" font-family="system-ui, sans-serif" font-size="14" fill="#71717A" text-anchor="middle">@devweekends</text>
</svg>