<svg width="1080" height="1080" viewBox="0 0 1080 1080" fill="none" xmlns="http://www.w3.org/2000/svg">
  <rect width="1080" height="1080" fill="#FAFAFA"/>
  
  <text x="60" y="80" font-family="system-ui, sans-serif" font-size="14" font-weight="600" fill="#18181B" letter-spacing="3">DEV WEEKENDS</text>
  
  <rect x="60" y="140" width="200" height="40" fill="#18181B"/>
  <text x="160" y="168" font-family="system-ui, sans-serif" font-size="12" font-weight="600" fill="#FAFAFA" text-anchor="middle" letter-spacing="2">SYSTEM DESIGN</text>
  
  <text x="60" y="320" font-family="system-ui, sans-serif" font-size="56" font-weight="700" fill="#18181B">WebSockets</text>
  <text x="60" y="390" font-family="system-ui, sans-serif" font-size="28" font-weight="400" fill="#71717A">vs Long Polling vs SSE</text>
  
  <text x="60" y="460" font-family="system-ui, sans-serif" font-size="20" fill="#71717A">Real-time communication patterns</text>
  
  <rect x="60" y="500" width="300" height="320" fill="#22C55E" rx="8"/>
  <text x="210" y="550" font-family="system-ui, sans-serif" font-size="18" font-weight="600" fill="#FAFAFA" text-anchor="middle">WebSocket</text>
  <text x="210" y="590" font-family="system-ui, sans-serif" font-size="13" fill="#FAFAFA" text-anchor="middle">Full-duplex connection</text>
  
  <line x1="130" y1="640" x2="130" y2="760" stroke="#FAFAFA" stroke-width="2"/>
  <line x1="290" y1="640" x2="290" y2="760" stroke="#FAFAFA" stroke-width="2"/>
  <line x1="130" y1="670" x2="290" y2="680" stroke="#FAFAFA" stroke-width="1"/>
  <line x1="290" y1="700" x2="130" y2="710" stroke="#FAFAFA" stroke-width="1"/>
  <line x1="130" y1="730" x2="290" y2="740" stroke="#FAFAFA" stroke-width="1"/>
  
  <text x="100" y="790" font-family="system-ui, sans-serif" font-size="11" fill="#FAFAFA">Use: Chat, Gaming</text>
  
  <rect x="390" y="500" width="300" height="320" fill="#3B82F6" rx="8"/>
  <text x="540" y="550" font-family="system-ui, sans-serif" font-size="18" font-weight="600" fill="#FAFAFA" text-anchor="middle">Long Polling</text>
  <text x="540" y="590" font-family="system-ui, sans-serif" font-size="13" fill="#FAFAFA" text-anchor="middle">Hold request until data</text>
  
  <line x1="460" y1="640" x2="460" y2="760" stroke="#FAFAFA" stroke-width="2"/>
  <line x1="620" y1="640" x2="620" y2="760" stroke="#FAFAFA" stroke-width="2"/>
  <line x1="460" y1="660" x2="620" y2="660" stroke="#FAFAFA" stroke-width="1"/>
  <text x="540" y="700" font-family="system-ui, sans-serif" font-size="10" fill="#FAFAFA" text-anchor="middle">wait...</text>
  <line x1="620" y1="720" x2="460" y2="720" stroke="#FAFAFA" stroke-width="1"/>
  <line x1="460" y1="740" x2="620" y2="740" stroke="#FAFAFA" stroke-width="1"/>
  
  <text x="430" y="790" font-family="system-ui, sans-serif" font-size="11" fill="#FAFAFA">Use: Notifications</text>
  
  <rect x="720" y="500" width="300" height="320" fill="#A855F7" rx="8"/>
  <text x="870" y="550" font-family="system-ui, sans-serif" font-size="18" font-weight="600" fill="#FAFAFA" text-anchor="middle">SSE</text>
  <text x="870" y="590" font-family="system-ui, sans-serif" font-size="13" fill="#FAFAFA" text-anchor="middle">Server → Client only</text>
  
  <line x1="790" y1="640" x2="790" y2="760" stroke="#FAFAFA" stroke-width="2"/>
  <line x1="950" y1="640" x2="950" y2="760" stroke="#FAFAFA" stroke-width="2"/>
  <line x1="950" y1="660" x2="790" y2="670" stroke="#FAFAFA" stroke-width="1"/>
  <line x1="950" y1="700" x2="790" y2="710" stroke="#FAFAFA" stroke-width="1"/>
  <line x1="950" y1="740" x2="790" y2="750" stroke="#FAFAFA" stroke-width="1"/>
  
  <text x="760" y="790" font-family="system-ui, sans-serif" font-size="11" fill="#FAFAFA">Use: Live feeds</text>
  
  <rect x="60" y="850" width="960" height="120" fill="#F4F4F5" rx="8"/>
  <text x="200" y="910" font-family="system-ui, sans-serif" font-size="14" fill="#18181B">Connection: Persistent</text>
  <text x="200" y="940" font-family="system-ui, sans-serif" font-size="14" fill="#18181B">Direction: Bidirectional</text>
  <text x="500" y="910" font-family="system-ui, sans-serif" font-size="14" fill="#18181B">Connection: Repeated</text>
  <text x="500" y="940" font-family="system-ui, sans-serif" font-size="14" fill="#18181B">Overhead: High</text>
  <text x="800" y="910" font-family="system-ui, sans-serif" font-size="14" fill="#18181B">Connection: Persistent</text>
  <text x="800" y="940" font-family="system-ui, sans-serif" font-size="14" fill="#18181B">Direction: Server only</text>
  
  <text x="540" y="1040" font-family="system-ui, sans-serif" font-size="14" fill="#71717A" text-anchor="middle">@devweekends</text>
</svg>