<svg width="1080" height="1080" viewBox="0 0 1080 1080" fill="none" xmlns="http://www.w3.org/2000/svg">
  <rect width="1080" height="1080" fill="#FAFAFA"/>
  
  <text x="60" y="80" font-family="system-ui, sans-serif" font-size="14" font-weight="600" fill="#18181B" letter-spacing="3">DEV WEEKENDS</text>
  
  <rect x="60" y="140" width="200" height="40" fill="#18181B"/>
  <text x="160" y="168" font-family="system-ui, sans-serif" font-size="12" font-weight="600" fill="#FAFAFA" text-anchor="middle" letter-spacing="2">SYSTEM DESIGN</text>
  
  <text x="60" y="320" font-family="system-ui, sans-serif" font-size="56" font-weight="700" fill="#18181B">Event-Driven</text>
  <text x="60" y="390" font-family="system-ui, sans-serif" font-size="56" font-weight="700" fill="#A855F7">Architecture</text>
  
  <text x="60" y="460" font-family="system-ui, sans-serif" font-size="20" fill="#71717A">Communicate through events, loosely coupled services</text>
  
  <rect x="60" y="500" width="960" height="280" fill="#F4F4F5" rx="8"/>
  
  <rect x="120" y="580" width="180" height="100" fill="#3B82F6" rx="4"/>
  <text x="210" y="620" font-family="system-ui, sans-serif" font-size="14" fill="#FAFAFA" text-anchor="middle">Order Service</text>
  <text x="210" y="650" font-family="system-ui, sans-serif" font-size="11" fill="#A1A1AA" text-anchor="middle">(Producer)</text>
  
  <line x1="300" y1="630" x2="380" y2="630" stroke="#18181B" stroke-width="2"/>
  <text x="340" y="620" font-family="system-ui, sans-serif" font-size="10" fill="#52525B" text-anchor="middle">emit</text>
  
  <rect x="400" y="540" width="280" height="180" fill="#A855F7" rx="4"/>
  <text x="540" y="580" font-family="system-ui, sans-serif" font-size="16" font-weight="600" fill="#FAFAFA" text-anchor="middle">Event Bus</text>
  <rect x="440" y="610" width="200" height="40" fill="#FAFAFA" rx="2"/>
  <text x="540" y="638" font-family="system-ui, sans-serif" font-size="12" fill="#18181B" text-anchor="middle">OrderCreated Event</text>
  <rect x="440" y="660" width="200" height="40" fill="#FAFAFA" rx="2"/>
  <text x="540" y="688" font-family="system-ui, sans-serif" font-size="12" fill="#18181B" text-anchor="middle">PaymentReceived Event</text>
  
  <line x1="680" y1="600" x2="760" y2="570" stroke="#18181B" stroke-width="2"/>
  <line x1="680" y1="660" x2="760" y2="690" stroke="#18181B" stroke-width="2"/>
  
  <rect x="780" y="530" width="180" height="70" fill="#22C55E" rx="4"/>
  <text x="870" y="565" font-family="system-ui, sans-serif" font-size="13" fill="#FAFAFA" text-anchor="middle">Inventory</text>
  <text x="870" y="585" font-family="system-ui, sans-serif" font-size="10" fill="#A1A1AA" text-anchor="middle">(Consumer)</text>
  
  <rect x="780" y="650" width="180" height="70" fill="#22C55E" rx="4"/>
  <text x="870" y="685" font-family="system-ui, sans-serif" font-size="13" fill="#FAFAFA" text-anchor="middle">Notification</text>
  <text x="870" y="705" font-family="system-ui, sans-serif" font-size="10" fill="#A1A1AA" text-anchor="middle">(Consumer)</text>
  
  <rect x="60" y="810" width="480" height="160" fill="#18181B" rx="8"/>
  <text x="300" y="860" font-family="system-ui, sans-serif" font-size="18" font-weight="600" fill="#22C55E" text-anchor="middle">Advantages</text>
  <text x="100" y="910" font-family="system-ui, sans-serif" font-size="15" fill="#A1A1AA">• Loose coupling</text>
  <text x="100" y="945" font-family="system-ui, sans-serif" font-size="15" fill="#A1A1AA">• Easy to add consumers</text>
  
  <rect x="560" y="810" width="460" height="160" fill="#F4F4F5" rx="8"/>
  <text x="790" y="860" font-family="system-ui, sans-serif" font-size="18" font-weight="600" fill="#A855F7" text-anchor="middle">Event Sourcing</text>
  <text x="600" y="910" font-family="system-ui, sans-serif" font-size="15" fill="#52525B">Store events as source of truth</text>
  <text x="600" y="945" font-family="system-ui, sans-serif" font-size="15" fill="#52525B">Rebuild state by replaying events</text>
  
  <text x="540" y="1040" font-family="system-ui, sans-serif" font-size="14" fill="#71717A" text-anchor="middle">@devweekends</text>
</svg>