<svg width="1080" height="1080" viewBox="0 0 1080 1080" fill="none" xmlns="http://www.w3.org/2000/svg">
  <rect width="1080" height="1080" fill="#18181B"/>
  
  <text x="60" y="80" font-family="system-ui, sans-serif" font-size="14" font-weight="600" fill="#FAFAFA" letter-spacing="3">DEV WEEKENDS</text>
  
  <rect x="60" y="140" width="200" height="40" fill="#3B82F6"/>
  <text x="160" y="168" font-family="system-ui, sans-serif" font-size="12" font-weight="600" fill="#FAFAFA" text-anchor="middle" letter-spacing="2">SYSTEM DESIGN</text>
  
  <text x="60" y="320" font-family="system-ui, sans-serif" font-size="56" font-weight="700" fill="#FAFAFA">CQRS</text>
  
  <text x="60" y="390" font-family="system-ui, sans-serif" font-size="24" fill="#A1A1AA">Command Query Responsibility Segregation</text>
  
  <text x="60" y="460" font-family="system-ui, sans-serif" font-size="20" fill="#A1A1AA">Separate read and write operations</text>
  
  <rect x="60" y="500" width="960" height="380" fill="#27272A" rx="8"/>
  
  <rect x="400" y="530" width="280" height="50" fill="#FEF08A" rx="4"/>
  <text x="540" y="563" font-family="system-ui, sans-serif" font-size="16" fill="#18181B" text-anchor="middle">API Layer</text>
  
  <line x1="400" y1="580" x2="250" y2="630" stroke="#FAFAFA" stroke-width="2"/>
  <line x1="680" y1="580" x2="830" y2="630" stroke="#FAFAFA" stroke-width="2"/>
  
  <rect x="120" y="640" width="260" height="220" fill="#EF4444" rx="4"/>
  <text x="250" y="680" font-family="system-ui, sans-serif" font-size="18" font-weight="600" fill="#FAFAFA" text-anchor="middle">Command Side</text>
  <text x="250" y="720" font-family="system-ui, sans-serif" font-size="14" fill="#FAFAFA" text-anchor="middle">Write Model</text>
  
  <rect x="160" y="750" width="180" height="40" fill="#FAFAFA" rx="2"/>
  <text x="250" y="778" font-family="system-ui, sans-serif" font-size="12" fill="#18181B" text-anchor="middle">Domain Logic</text>
  
  <rect x="160" y="800" width="180" height="40" fill="#3F3F46" rx="2"/>
  <text x="250" y="828" font-family="system-ui, sans-serif" font-size="12" fill="#FAFAFA" text-anchor="middle">Write DB</text>
  
  <rect x="700" y="640" width="260" height="220" fill="#22C55E" rx="4"/>
  <text x="830" y="680" font-family="system-ui, sans-serif" font-size="18" font-weight="600" fill="#FAFAFA" text-anchor="middle">Query Side</text>
  <text x="830" y="720" font-family="system-ui, sans-serif" font-size="14" fill="#FAFAFA" text-anchor="middle">Read Model</text>
  
  <rect x="740" y="750" width="180" height="40" fill="#FAFAFA" rx="2"/>
  <text x="830" y="778" font-family="system-ui, sans-serif" font-size="12" fill="#18181B" text-anchor="middle">Denormalized Views</text>
  
  <rect x="740" y="800" width="180" height="40" fill="#3F3F46" rx="2"/>
  <text x="830" y="828" font-family="system-ui, sans-serif" font-size="12" fill="#FAFAFA" text-anchor="middle">Read DB (Optimized)</text>
  
  <line x1="380" y1="820" x2="700" y2="820" stroke="#FEF08A" stroke-width="2" stroke-dasharray="10,5"/>
  <text x="540" y="810" font-family="system-ui, sans-serif" font-size="12" fill="#FEF08A" text-anchor="middle">Sync (Events)</text>
  
  <text x="60" y="940" font-family="system-ui, sans-serif" font-size="16" fill="#FAFAFA">Benefits: Independent scaling, optimized models for each operation</text>
  <text x="60" y="980" font-family="system-ui, sans-serif" font-size="14" fill="#EF4444">Trade-off: Eventual consistency, increased complexity</text>
  
  <text x="540" y="1040" font-family="system-ui, sans-serif" font-size="14" fill="#52525B" text-anchor="middle">@devweekends</text>
</svg>