<svg width="1080" height="1080" viewBox="0 0 1080 1080" fill="none" xmlns="http://www.w3.org/2000/svg">
  <rect width="1080" height="1080" fill="#FAFAFA"/>
  
  <defs>
    <pattern id="grid-placement-light" width="40" height="40" patternUnits="userSpaceOnUse">
      <path d="M 40 0 L 0 0 0 40" fill="none" stroke="#E5E5E5" stroke-width="0.5"/>
    </pattern>
  </defs>
  <rect width="1080" height="1080" fill="url(#grid-placement-light)"/>
  
  <rect x="100" y="100" width="20" height="8" fill="#FEF08A" transform="rotate(45 100 100)"/>
  <rect x="300" y="150" width="20" height="8" fill="#22C55E" transform="rotate(-30 300 150)"/>
  <rect x="800" y="120" width="20" height="8" fill="#18181B" transform="rotate(60 800 120)"/>
  <rect x="950" y="200" width="20" height="8" fill="#FEF08A" transform="rotate(-45 950 200)"/>
  <circle cx="200" cy="200" r="8" fill="#22C55E"/>
  <circle cx="900" cy="150" r="8" fill="#18181B" opacity="0.3"/>
  
  <text x="60" y="80" font-family="system-ui, sans-serif" font-size="14" font-weight="600" fill="#18181B" letter-spacing="3">DEV WEEKENDS</text>
  
  <rect x="60" y="160" width="200" height="40" fill="#18181B"/>
  <text x="160" y="188" font-family="system-ui, sans-serif" font-size="12" font-weight="600" fill="#FEF08A" text-anchor="middle" letter-spacing="2">PLACEMENT ALERT</text>
  
  <circle cx="540" cy="400" r="120" fill="#F4F4F5"/>
  <text x="540" y="415" font-family="system-ui, sans-serif" font-size="48" fill="#71717A" text-anchor="middle">PHOTO</text>
  
  <circle cx="540" cy="400" r="130" stroke="#18181B" stroke-width="4" fill="none"/>
  
  <text x="540" y="600" font-family="system-ui, sans-serif" font-size="42" font-weight="700" fill="#18181B" text-anchor="middle">[Name Here]</text>
  
  <text x="540" y="670" font-family="system-ui, sans-serif" font-size="24" fill="#71717A" text-anchor="middle">Got placed at</text>
  
  <rect x="340" y="710" width="400" height="80" fill="#F4F4F5"/>
  <text x="540" y="762" font-family="system-ui, sans-serif" font-size="32" font-weight="700" fill="#18181B" text-anchor="middle">[COMPANY]</text>
  
  <text x="540" y="860" font-family="system-ui, sans-serif" font-size="48" font-weight="800" fill="#22C55E" text-anchor="middle">XX LPA</text>
  
  <text x="540" y="940" font-family="system-ui, sans-serif" font-size="16" fill="#71717A" text-anchor="middle">"Dev Weekends helped me crack my dream job!"</text>
  
  <text x="540" y="1020" font-family="system-ui, sans-serif" font-size="14" fill="#71717A" text-anchor="middle">Congratulations from the Dev Weekends family!</text>
</svg>