<svg width="1080" height="1080" viewBox="0 0 1080 1080" fill="none" xmlns="http://www.w3.org/2000/svg">
  <rect width="1080" height="1080" fill="#FAFAFA"/>
  
  <defs>
    <pattern id="grid-5k-discord-light" width="40" height="40" patternUnits="userSpaceOnUse">
      <path d="M 40 0 L 0 0 0 40" fill="none" stroke="#E5E5E5" stroke-width="0.5"/>
    </pattern>
  </defs>
  <rect width="1080" height="1080" fill="url(#grid-5k-discord-light)"/>
  
  <text x="540" y="100" font-family="system-ui, sans-serif" font-size="16" font-weight="600" fill="#18181B" letter-spacing="4" text-anchor="middle">DEV WEEKENDS</text>
  
  <rect x="365" y="140" width="350" height="44" fill="#5865F2"/>
  <text x="540" y="170" font-family="system-ui, sans-serif" font-size="14" font-weight="600" fill="#FFFFFF" text-anchor="middle" letter-spacing="2">DISCORD MILESTONE</text>
  
  <text x="540" y="450" font-family="system-ui, sans-serif" font-size="200" font-weight="800" fill="#5865F2" text-anchor="middle">5,000</text>
  
  <rect x="290" y="480" width="500" height="12" fill="#FEF08A"/>
  
  <text x="540" y="560" font-family="system-ui, sans-serif" font-size="48" font-weight="700" fill="#18181B" text-anchor="middle">Discord Members</text>
  
  <circle cx="540" cy="700" r="70" fill="#5865F2"/>
  <path d="M510 680 C510 680 520 710 540 710 C560 710 570 680 570 680" stroke="#FFFFFF" stroke-width="6" fill="none"/>
  <circle cx="525" cy="695" r="8" fill="#FFFFFF"/>
  <circle cx="555" cy="695" r="8" fill="#FFFFFF"/>
  
  <text x="540" y="860" font-family="system-ui, sans-serif" font-size="24" fill="#18181B" text-anchor="middle">5K developers learning, growing, winning together!</text>
  <text x="540" y="905" font-family="system-ui, sans-serif" font-size="18" fill="#71717A" text-anchor="middle">Join our daily discussions, code reviews and live sessions</text>
  
  <circle cx="150" cy="200" r="8" fill="#FEF08A"/>
  <circle cx="920" cy="300" r="10" fill="#FEF08A"/>
  <circle cx="200" cy="800" r="6" fill="#5865F2" opacity="0.3"/>
  <circle cx="880" cy="850" r="8" fill="#5865F2" opacity="0.3"/>
  
  <text x="540" y="1020" font-family="system-ui, sans-serif" font-size="14" fill="#71717A" text-anchor="middle" letter-spacing="2">DEVWEEKENDS.COM</text>
</svg>