<svg width="1080" height="1080" viewBox="0 0 1080 1080" fill="none" xmlns="http://www.w3.org/2000/svg">
  <rect width="1080" height="1080" fill="#FAFAFA"/>
  
  <defs>
    <pattern id="grid-10k-light" width="40" height="40" patternUnits="userSpaceOnUse">
      <path d="M 40 0 L 0 0 0 40" fill="none" stroke="#E5E5E5" stroke-width="0.5"/>
    </pattern>
  </defs>
  <rect width="1080" height="1080" fill="url(#grid-10k-light)"/>
  
  <text x="540" y="100" font-family="system-ui, sans-serif" font-size="16" font-weight="600" fill="#18181B" letter-spacing="4" text-anchor="middle">DEV WEEKENDS</text>
  
  <rect x="365" y="140" width="350" height="44" fill="#5865F2"/>
  <text x="540" y="170" font-family="system-ui, sans-serif" font-size="14" font-weight="600" fill="#FFFFFF" text-anchor="middle" letter-spacing="2">DISCORD MILESTONE</text>
  
  <text x="540" y="440" font-family="system-ui, sans-serif" font-size="200" font-weight="800" fill="#18181B" text-anchor="middle">10,000</text>
  
  <rect x="265" y="470" width="550" height="12" fill="#5865F2" opacity="0.8"/>
  
  <text x="540" y="560" font-family="system-ui, sans-serif" font-size="48" font-weight="700" fill="#5865F2" text-anchor="middle">Discord Members</text>
  
  <circle cx="540" cy="700" r="70" fill="#5865F2"/>
  <path d="M500 680 Q520 660 540 680 Q560 660 580 680 L575 710 Q560 720 540 720 Q520 720 505 710 Z" fill="#FFFFFF"/>
  
  <text x="540" y="860" font-family="system-ui, sans-serif" font-size="24" fill="#18181B" text-anchor="middle">10K developers in one amazing community!</text>
  <text x="540" y="905" font-family="system-ui, sans-serif" font-size="18" fill="#71717A" text-anchor="middle">Daily discussions - Code reviews - Career guidance - Live sessions</text>
  
  <circle cx="150" cy="200" r="10" fill="#FEF08A"/>
  <circle cx="920" cy="250" r="12" fill="#5865F2" opacity="0.5"/>
  <circle cx="180" cy="850" r="8" fill="#FEF08A"/>
  <circle cx="900" cy="800" r="10" fill="#5865F2" opacity="0.5"/>
  <rect x="100" y="500" width="15" height="15" fill="#FEF08A" opacity="0.6" transform="rotate(45 107 507)"/>
  
  <text x="540" y="1020" font-family="system-ui, sans-serif" font-size="14" fill="#71717A" text-anchor="middle" letter-spacing="2">DEVWEEKENDS.COM</text>
</svg>