<svg width="1080" height="1080" viewBox="0 0 1080 1080" fill="none" xmlns="http://www.w3.org/2000/svg">
  <rect width="1080" height="1080" fill="#FAFAFA"/>
  
  <!-- Grid -->
  <defs>
    <pattern id="grid-25k" width="40" height="40" patternUnits="userSpaceOnUse">
      <path d="M 40 0 L 0 0 0 40" fill="none" stroke="#E5E5E5" stroke-width="0.5"/>
    </pattern>
  </defs>
  <rect width="1080" height="1080" fill="url(#grid-25k)"/>
  
  <!-- Left accent bar -->
  <rect x="0" y="0" width="12" height="1080" fill="#18181B"/>
  
  <!-- Branding -->
  <text x="540" y="100" font-family="system-ui, sans-serif" font-size="16" font-weight="600" fill="#18181B" letter-spacing="4" text-anchor="middle">DEV WEEKENDS</text>
  
  <!-- Badge -->
  <rect x="340" y="140" width="400" height="44" fill="#18181B" rx="4"/>
  <text x="540" y="170" font-family="system-ui, sans-serif" font-size="14" font-weight="600" fill="#FEF08A" text-anchor="middle" letter-spacing="2">🎉 COMMUNITY CELEBRATION</text>
  
  <!-- Big number -->
  <text x="540" y="440" font-family="system-ui, sans-serif" font-size="200" font-weight="800" fill="#18181B" text-anchor="middle">25,000</text>
  
  <!-- Yellow highlight bar -->
  <rect x="240" y="470" width="600" height="14" fill="#FEF08A"/>
  
  <!-- Label -->
  <text x="540" y="560" font-family="system-ui, sans-serif" font-size="48" font-weight="700" fill="#18181B" text-anchor="middle">Community Members</text>
  
  <!-- Growth chart visual -->
  <g transform="translate(290, 620)">
    <rect x="0" y="80" width="80" height="60" fill="#E5E5E5" rx="4"/>
    <text x="40" y="120" font-family="system-ui, sans-serif" font-size="11" fill="#71717A" text-anchor="middle">2022</text>
    
    <rect x="120" y="50" width="80" height="90" fill="#D4D4D4" rx="4"/>
    <text x="160" y="120" font-family="system-ui, sans-serif" font-size="11" fill="#71717A" text-anchor="middle">2023</text>
    
    <rect x="240" y="20" width="80" height="120" fill="#A1A1AA" rx="4"/>
    <text x="280" y="120" font-family="system-ui, sans-serif" font-size="11" fill="#71717A" text-anchor="middle">2024</text>
    
    <rect x="360" y="-20" width="80" height="160" fill="#FEF08A" rx="4"/>
    <text x="400" y="120" font-family="system-ui, sans-serif" font-size="11" fill="#18181B" text-anchor="middle" font-weight="600">2025</text>
    
    <rect x="480" y="-60" width="80" height="200" fill="#18181B" rx="4"/>
    <text x="520" y="120" font-family="system-ui, sans-serif" font-size="11" fill="#71717A" text-anchor="middle">GOAL</text>
  </g>
  
  <!-- Message -->
  <text x="540" y="860" font-family="system-ui, sans-serif" font-size="24" fill="#18181B" text-anchor="middle">25K strong and growing every day!</text>
  <text x="540" y="905" font-family="system-ui, sans-serif" font-size="18" fill="#71717A" text-anchor="middle">Thank you for being part of Pakistan's tech revolution 🇵🇰</text>
  
  <!-- CTA -->
  <rect x="390" y="940" width="300" height="50" fill="#18181B" rx="4"/>
  <text x="540" y="973" font-family="system-ui, sans-serif" font-size="14" font-weight="600" fill="#FAFAFA" text-anchor="middle" letter-spacing="1">JOIN THE FAMILY →</text>
  
  <!-- Footer -->
  <text x="540" y="1040" font-family="system-ui, sans-serif" font-size="14" fill="#71717A" text-anchor="middle" letter-spacing="2">DEVWEEKENDS.COM</text>
</svg>