<svg width="1080" height="1080" viewBox="0 0 1080 1080" fill="none" xmlns="http://www.w3.org/2000/svg">
  <rect width="1080" height="1080" fill="#FAFAFA"/>
  
  <defs>
    <pattern id="grid-ig-light" width="40" height="40" patternUnits="userSpaceOnUse">
      <path d="M 40 0 L 0 0 0 40" fill="none" stroke="#E5E5E5" stroke-width="0.5"/>
    </pattern>
    <linearGradient id="ig-gradient-light" x1="0%" y1="100%" x2="100%" y2="0%">
      <stop offset="0%" style="stop-color:#FCAF45"/>
      <stop offset="50%" style="stop-color:#F56040"/>
      <stop offset="100%" style="stop-color:#833AB4"/>
    </linearGradient>
  </defs>
  <rect width="1080" height="1080" fill="url(#grid-ig-light)"/>
  
  <rect x="0" y="0" width="12" height="1080" fill="url(#ig-gradient-light)"/>
  
  <text x="540" y="100" font-family="system-ui, sans-serif" font-size="16" font-weight="600" fill="#18181B" letter-spacing="4" text-anchor="middle">DEV WEEKENDS</text>
  
  <rect x="365" y="140" width="350" height="44" fill="#E1306C"/>
  <text x="540" y="170" font-family="system-ui, sans-serif" font-size="14" font-weight="600" fill="#FFFFFF" text-anchor="middle" letter-spacing="2">INSTAGRAM MILESTONE</text>
  
  <text x="540" y="450" font-family="system-ui, sans-serif" font-size="200" font-weight="800" fill="#18181B" text-anchor="middle">5,000</text>
  
  <rect x="290" y="480" width="500" height="12" fill="#E1306C" opacity="0.4"/>
  
  <text x="540" y="570" font-family="system-ui, sans-serif" font-size="48" font-weight="700" fill="#E1306C" text-anchor="middle">Instagram Followers</text>
  
  <rect x="465" y="630" width="150" height="150" fill="#F4F4F5"/>
  <rect x="475" y="640" width="130" height="130" fill="none" stroke="url(#ig-gradient-light)" stroke-width="4" rx="30"/>
  <circle cx="540" cy="705" r="35" fill="none" stroke="url(#ig-gradient-light)" stroke-width="4"/>
  <circle cx="585" cy="660" r="6" fill="#E1306C"/>
  
  <text x="540" y="870" font-family="system-ui, sans-serif" font-size="24" fill="#18181B" text-anchor="middle">5K following our visual journey!</text>
  <text x="540" y="915" font-family="system-ui, sans-serif" font-size="18" fill="#71717A" text-anchor="middle">Daily tech tips, career advice and community highlights</text>
  
  <rect x="390" y="950" width="300" height="50" fill="#18181B"/>
  <text x="540" y="983" font-family="system-ui, sans-serif" font-size="14" font-weight="600" fill="#FAFAFA" text-anchor="middle" letter-spacing="1">FOLLOW US</text>
  
  <circle cx="150" cy="250" r="8" fill="#E1306C" opacity="0.3"/>
  <circle cx="930" cy="300" r="10" fill="#FCAF45" opacity="0.3"/>
  <circle cx="120" cy="800" r="6" fill="#833AB4" opacity="0.3"/>
  <circle cx="960" cy="750" r="8" fill="#F56040" opacity="0.3"/>
  
  <text x="540" y="1040" font-family="system-ui, sans-serif" font-size="14" fill="#71717A" text-anchor="middle" letter-spacing="2">@DEVWEEKENDS</text>
</svg>