<svg width="1080" height="1080" viewBox="0 0 1080 1080" fill="none" xmlns="http://www.w3.org/2000/svg">
  <rect width="1080" height="1080" fill="#FAFAFA"/>
  
  <defs>
    <pattern id="grid-x-light" width="40" height="40" patternUnits="userSpaceOnUse">
      <path d="M 40 0 L 0 0 0 40" fill="none" stroke="#E5E5E5" stroke-width="0.5"/>
    </pattern>
  </defs>
  <rect width="1080" height="1080" fill="url(#grid-x-light)"/>
  
  <rect x="0" y="0" width="12" height="1080" fill="#18181B"/>
  
  <text x="540" y="100" font-family="system-ui, sans-serif" font-size="16" font-weight="600" fill="#18181B" letter-spacing="4" text-anchor="middle">DEV WEEKENDS</text>
  
  <rect x="390" y="140" width="300" height="44" fill="#18181B"/>
  <text x="540" y="170" font-family="system-ui, sans-serif" font-size="14" font-weight="600" fill="#FAFAFA" text-anchor="middle" letter-spacing="2">X TWITTER MILESTONE</text>
  
  <text x="540" y="450" font-family="system-ui, sans-serif" font-size="200" font-weight="800" fill="#18181B" text-anchor="middle">5,000</text>
  
  <rect x="290" y="480" width="500" height="12" fill="#18181B" opacity="0.2"/>
  
  <text x="540" y="570" font-family="system-ui, sans-serif" font-size="48" font-weight="700" fill="#18181B" text-anchor="middle">X / Twitter Followers</text>
  
  <circle cx="540" cy="700" r="60" fill="#18181B"/>
  <text x="540" y="720" font-family="system-ui, sans-serif" font-size="50" font-weight="800" fill="#FAFAFA" text-anchor="middle">X</text>
  
  <text x="540" y="850" font-family="system-ui, sans-serif" font-size="24" fill="#18181B" text-anchor="middle">5K engaging with our daily tech insights!</text>
  <text x="540" y="895" font-family="system-ui, sans-serif" font-size="18" fill="#71717A" text-anchor="middle">Tech tips - Industry trends - Career opportunities</text>
  
  <rect x="390" y="940" width="300" height="50" fill="#18181B"/>
  <text x="540" y="973" font-family="system-ui, sans-serif" font-size="14" font-weight="600" fill="#FAFAFA" text-anchor="middle" letter-spacing="1">FOLLOW @DEVWEEKENDS</text>
  
  <circle cx="150" cy="250" r="6" fill="#18181B" opacity="0.1"/>
  <circle cx="930" cy="300" r="8" fill="#18181B" opacity="0.08"/>
  <circle cx="120" cy="800" r="5" fill="#18181B" opacity="0.1"/>
  <circle cx="960" cy="750" r="7" fill="#18181B" opacity="0.08"/>
  
  <text x="540" y="1040" font-family="system-ui, sans-serif" font-size="14" fill="#71717A" text-anchor="middle" letter-spacing="2">X.COM/DEVWEEKENDS</text>
</svg>