<svg width="1080" height="1080" viewBox="0 0 1080 1080" fill="none" xmlns="http://www.w3.org/2000/svg">
  <rect width="1080" height="1080" fill="#FAFAFA"/>
  
  <defs>
    <pattern id="grid-100k-light" width="40" height="40" patternUnits="userSpaceOnUse">
      <path d="M 40 0 L 0 0 0 40" fill="none" stroke="#E5E5E5" stroke-width="0.5"/>
    </pattern>
  </defs>
  <rect width="1080" height="1080" fill="url(#grid-100k-light)"/>
  
  <rect x="0" y="0" width="12" height="1080" fill="#18181B"/>
  
  <text x="540" y="100" font-family="system-ui, sans-serif" font-size="16" font-weight="600" fill="#18181B" letter-spacing="4" text-anchor="middle">DEV WEEKENDS</text>
  
  <rect x="315" y="140" width="450" height="50" fill="#18181B"/>
  <text x="540" y="173" font-family="system-ui, sans-serif" font-size="16" font-weight="600" fill="#FEF08A" text-anchor="middle" letter-spacing="2">THE BIG ONE - DREAM GOAL</text>
  
  <text x="540" y="420" font-family="system-ui, sans-serif" font-size="180" font-weight="800" fill="#18181B" text-anchor="middle">100,000</text>
  
  <rect x="140" y="450" width="800" height="8" fill="#18181B"/>
  <rect x="190" y="465" width="700" height="6" fill="#FEF08A"/>
  <rect x="240" y="478" width="600" height="4" fill="#18181B" opacity="0.3"/>
  
  <text x="540" y="560" font-family="system-ui, sans-serif" font-size="52" font-weight="700" fill="#18181B" text-anchor="middle">Community Members</text>
  
  <text x="540" y="620" font-family="system-ui, sans-serif" font-size="22" fill="#52525B" text-anchor="middle">Our ultimate goal - 100K engineers!</text>
  
  <g transform="translate(115, 680)">
    <rect x="0" y="0" width="200" height="100" fill="#F4F4F5"/>
    <text x="100" y="45" font-family="system-ui, sans-serif" font-size="28" font-weight="800" fill="#18181B" text-anchor="middle">1000+</text>
    <text x="100" y="75" font-family="system-ui, sans-serif" font-size="11" fill="#71717A" text-anchor="middle" letter-spacing="1">TRAINED</text>
    
    <rect x="230" y="0" width="200" height="100" fill="#F4F4F5"/>
    <text x="330" y="45" font-family="system-ui, sans-serif" font-size="28" font-weight="800" fill="#18181B" text-anchor="middle">500+</text>
    <text x="330" y="75" font-family="system-ui, sans-serif" font-size="11" fill="#71717A" text-anchor="middle" letter-spacing="1">SESSIONS</text>
    
    <rect x="460" y="0" width="200" height="100" fill="#F4F4F5"/>
    <text x="560" y="45" font-family="system-ui, sans-serif" font-size="28" font-weight="800" fill="#18181B" text-anchor="middle">100+</text>
    <text x="560" y="75" font-family="system-ui, sans-serif" font-size="11" fill="#71717A" text-anchor="middle" letter-spacing="1">PLACED</text>
    
    <rect x="690" y="0" width="200" height="100" fill="#FEF08A"/>
    <text x="790" y="45" font-family="system-ui, sans-serif" font-size="28" font-weight="800" fill="#18181B" text-anchor="middle">INFINITY</text>
    <text x="790" y="75" font-family="system-ui, sans-serif" font-size="11" fill="#18181B" text-anchor="middle" letter-spacing="1">DREAMS</text>
  </g>
  
  <text x="540" y="880" font-family="system-ui, sans-serif" font-size="26" fill="#18181B" text-anchor="middle">Help us reach 100K engineers!</text>
  <text x="540" y="925" font-family="system-ui, sans-serif" font-size="18" fill="#52525B" text-anchor="middle">Together, we're building Pakistan's tech future</text>
  
  <rect x="390" y="960" width="300" height="55" fill="#18181B"/>
  <text x="540" y="995" font-family="system-ui, sans-serif" font-size="15" font-weight="600" fill="#FEF08A" text-anchor="middle" letter-spacing="1">BE PART OF HISTORY</text>
  
  <circle cx="100" cy="200" r="12" fill="#18181B" opacity="0.1"/>
  <circle cx="980" cy="250" r="15" fill="#FEF08A"/>
  <circle cx="150" cy="850" r="10" fill="#18181B" opacity="0.15"/>
  <circle cx="930" cy="880" r="12" fill="#FEF08A"/>
  <rect x="200" y="300" width="20" height="20" fill="#18181B" opacity="0.1" transform="rotate(45 210 310)"/>
  <rect x="860" y="400" width="25" height="25" fill="#FEF08A" opacity="0.6" transform="rotate(30 872 412)"/>
  
  <text x="540" y="1050" font-family="system-ui, sans-serif" font-size="14" fill="#71717A" text-anchor="middle" letter-spacing="2">DEVWEEKENDS.COM</text>
</svg>