<svg xmlns="http://www.w3.org/2000/svg" viewBox="0 0 800 500" fill="none">
  <!-- Background -->
  <rect width="800" height="500" fill="#FFF8F0"/>
  
  <!-- Grid Pattern -->
  <defs>
    <pattern id="gridTime" width="40" height="40" patternUnits="userSpaceOnUse">
      <path d="M 40 0 L 0 0 0 40" fill="none" stroke="#004E89" stroke-width="0.5" opacity="0.15"/>
    </pattern>
    <linearGradient id="chartGrad" x1="0%" y1="100%" x2="0%" y2="0%">
      <stop offset="0%" stop-color="#2EC4B6" stop-opacity="0.2"/>
      <stop offset="100%" stop-color="#2EC4B6" stop-opacity="0.8"/>
    </linearGradient>
  </defs>
  <rect width="800" height="500" fill="url(#gridTime)"/>
  
  <!-- Main App Window -->
  <g transform="translate(80, 30)">
    <!-- Window Frame -->
    <rect x="0" y="0" width="640" height="440" fill="white" stroke="#1A1A2E" stroke-width="4"/>
    <rect x="4" y="4" width="632" height="432" fill="white" stroke="#1A1A2E" stroke-width="2"/>
    
    <!-- Title Bar -->
    <rect x="8" y="8" width="624" height="40" fill="#004E89"/>
    <circle cx="30" cy="28" r="8" fill="#FF6B35"/>
    <circle cx="54" cy="28" r="8" fill="#FCBF49"/>
    <circle cx="78" cy="28" r="8" fill="#2EC4B6"/>
    <text x="320" y="34" fill="white" font-family="system-ui" font-size="16" font-weight="bold" text-anchor="middle">⏰ TimeMaster</text>
    
    <!-- Top Navigation -->
    <rect x="8" y="52" width="624" height="36" fill="#F5F5F5"/>
    <g font-family="system-ui" font-size="12" font-weight="600">
      <rect x="16" y="58" width="80" height="24" rx="4" fill="#FF6B35"/>
      <text x="56" y="74" fill="white" text-anchor="middle">Dashboard</text>
      
      <text x="130" y="74" fill="#666">Goals</text>
      <text x="200" y="74" fill="#666">Time Log</text>
      <text x="280" y="74" fill="#666">Calendar</text>
      <text x="360" y="74" fill="#666">Analytics</text>
    </g>
    
    <!-- Main Content Grid -->
    <g transform="translate(8, 96)">
      <!-- Left Column - Goals & Timer -->
      <g>
        <!-- Active Timer Card -->
        <rect x="0" y="0" width="200" height="100" rx="8" fill="#FCBF49" stroke="#1A1A2E" stroke-width="3"/>
        <text x="16" y="28" fill="#1A1A2E" font-family="system-ui" font-size="12" font-weight="bold">⏱️ ACTIVE TIMER</text>
        <text x="100" y="65" fill="#1A1A2E" font-family="system-ui" font-size="32" font-weight="bold" text-anchor="middle">02:34:15</text>
        <text x="100" y="88" fill="#1A1A2E" font-family="system-ui" font-size="11" text-anchor="middle">Working on: NoteFlow UI</text>
        
        <!-- Goals Progress -->
        <rect x="0" y="112" width="200" height="172" rx="8" fill="white" stroke="#1A1A2E" stroke-width="2"/>
        <text x="16" y="136" fill="#1A1A2E" font-family="system-ui" font-size="14" font-weight="bold">🎯 Today's Goals</text>
        
        <!-- Goal Items -->
        <g transform="translate(16, 150)">
          <rect x="0" y="0" width="168" height="36" rx="4" fill="#2EC4B6" opacity="0.2"/>
          <rect x="4" y="4" width="120" height="28" rx="3" fill="#2EC4B6"/>
          <text x="10" y="22" fill="white" font-family="system-ui" font-size="10">Code 4 hours ✓</text>
          <text x="155" y="22" fill="#1A1A2E" font-family="system-ui" font-size="10" font-weight="bold">100%</text>
          
          <rect x="0" y="42" width="168" height="36" rx="4" fill="#FF6B35" opacity="0.2"/>
          <rect x="4" y="46" width="100" height="28" rx="3" fill="#FF6B35"/>
          <text x="10" y="64" fill="white" font-family="system-ui" font-size="10">Review PRs</text>
          <text x="155" y="64" fill="#1A1A2E" font-family="system-ui" font-size="10" font-weight="bold">75%</text>
          
          <rect x="0" y="84" width="168" height="36" rx="4" fill="#9B5DE5" opacity="0.2"/>
          <rect x="4" y="88" width="60" height="28" rx="3" fill="#9B5DE5"/>
          <text x="10" y="106" fill="white" font-family="system-ui" font-size="10">Learn Rust</text>
          <text x="155" y="106" fill="#1A1A2E" font-family="system-ui" font-size="10" font-weight="bold">35%</text>
        </g>
      </g>
      
      <!-- Center - Spreadsheet View -->
      <g transform="translate(212, 0)">
        <rect x="0" y="0" width="280" height="284" rx="8" fill="white" stroke="#1A1A2E" stroke-width="2"/>
        <text x="16" y="28" fill="#1A1A2E" font-family="system-ui" font-size="14" font-weight="bold">📊 Time Log</text>
        
        <!-- Spreadsheet Header -->
        <rect x="8" y="40" width="264" height="24" fill="#1A1A2E"/>
        <text x="20" y="56" fill="white" font-family="system-ui" font-size="10" font-weight="bold">Date</text>
        <text x="80" y="56" fill="white" font-family="system-ui" font-size="10" font-weight="bold">Project</text>
        <text x="160" y="56" fill="white" font-family="system-ui" font-size="10" font-weight="bold">Hours</text>
        <text x="210" y="56" fill="white" font-family="system-ui" font-size="10" font-weight="bold">Category</text>
        
        <!-- Spreadsheet Rows -->
        <g font-family="system-ui" font-size="10">
          <rect x="8" y="64" width="264" height="22" fill="#F8F8F8"/>
          <text x="20" y="78" fill="#333">Dec 2</text>
          <text x="80" y="78" fill="#333">NoteFlow</text>
          <text x="166" y="78" fill="#333">4.5</text>
          <rect x="206" y="68" width="50" height="14" rx="3" fill="#2EC4B6"/>
          <text x="216" y="78" fill="white" font-size="8">Coding</text>
          
          <rect x="8" y="86" width="264" height="22" fill="white"/>
          <text x="20" y="100" fill="#333">Dec 2</text>
          <text x="80" y="100" fill="#333">TimeMaster</text>
          <text x="166" y="100" fill="#333">2.0</text>
          <rect x="206" y="90" width="50" height="14" rx="3" fill="#9B5DE5"/>
          <text x="216" y="100" fill="white" font-size="8">Design</text>
          
          <rect x="8" y="108" width="264" height="22" fill="#F8F8F8"/>
          <text x="20" y="122" fill="#333">Dec 1</text>
          <text x="80" y="122" fill="#333">NoteFlow</text>
          <text x="166" y="122" fill="#333">6.0</text>
          <rect x="206" y="112" width="50" height="14" rx="3" fill="#2EC4B6"/>
          <text x="216" y="122" fill="white" font-size="8">Coding</text>
          
          <rect x="8" y="130" width="264" height="22" fill="white"/>
          <text x="20" y="144" fill="#333">Dec 1</text>
          <text x="80" y="144" fill="#333">Meetings</text>
          <text x="166" y="144" fill="#333">1.5</text>
          <rect x="206" y="134" width="50" height="14" rx="3" fill="#FF6B35"/>
          <text x="216" y="144" fill="white" font-size="8">Meeting</text>
          
          <rect x="8" y="152" width="264" height="22" fill="#F8F8F8"/>
          <text x="20" y="166" fill="#333">Nov 30</text>
          <text x="80" y="166" fill="#333">Learning</text>
          <text x="166" y="166" fill="#333">2.0</text>
          <rect x="206" y="156" width="50" height="14" rx="3" fill="#F15BB5"/>
          <text x="216" y="166" fill="white" font-size="8">Study</text>
        </g>
        
        <!-- Total Row -->
        <rect x="8" y="180" width="264" height="24" fill="#004E89"/>
        <text x="80" y="196" fill="white" font-family="system-ui" font-size="11" font-weight="bold">TOTAL THIS WEEK</text>
        <text x="166" y="196" fill="#FCBF49" font-family="system-ui" font-size="11" font-weight="bold">32.5h</text>
        
        <!-- Mini Chart -->
        <g transform="translate(16, 216)">
          <text x="0" y="12" fill="#666" font-family="system-ui" font-size="10">Weekly Distribution</text>
          <rect x="0" y="20" width="30" height="40" fill="#2EC4B6"/>
          <rect x="36" y="28" width="30" height="32" fill="#9B5DE5"/>
          <rect x="72" y="35" width="30" height="25" fill="#FF6B35"/>
          <rect x="108" y="45" width="30" height="15" fill="#F15BB5"/>
          <text x="15" y="72" fill="#666" font-family="system-ui" font-size="8" text-anchor="middle">Code</text>
          <text x="51" y="72" fill="#666" font-family="system-ui" font-size="8" text-anchor="middle">Design</text>
          <text x="87" y="72" fill="#666" font-family="system-ui" font-size="8" text-anchor="middle">Meet</text>
          <text x="123" y="72" fill="#666" font-family="system-ui" font-size="8" text-anchor="middle">Study</text>
        </g>
      </g>
      
      <!-- Right Column - Analytics -->
      <g transform="translate(504, 0)">
        <rect x="0" y="0" width="120" height="140" rx="8" fill="#FF6B35" stroke="#1A1A2E" stroke-width="2"/>
        <text x="16" y="28" fill="white" font-family="system-ui" font-size="12" font-weight="bold">📈 Stats</text>
        <text x="60" y="65" fill="white" font-family="system-ui" font-size="28" font-weight="bold" text-anchor="middle">87%</text>
        <text x="60" y="85" fill="white" font-family="system-ui" font-size="10" text-anchor="middle" opacity="0.9">Productivity</text>
        <text x="60" y="110" fill="white" font-family="system-ui" font-size="18" font-weight="bold" text-anchor="middle">+12%</text>
        <text x="60" y="126" fill="white" font-family="system-ui" font-size="9" text-anchor="middle" opacity="0.8">vs last week</text>
        
        <rect x="0" y="152" width="120" height="132" rx="8" fill="white" stroke="#1A1A2E" stroke-width="2"/>
        <text x="16" y="176" fill="#1A1A2E" font-family="system-ui" font-size="11" font-weight="bold">🔥 Streak</text>
        <text x="60" y="220" fill="#FF6B35" font-family="system-ui" font-size="40" font-weight="bold" text-anchor="middle">14</text>
        <text x="60" y="245" fill="#666" font-family="system-ui" font-size="10" text-anchor="middle">days in a row!</text>
        <text x="60" y="270" fill="#2EC4B6" font-family="system-ui" font-size="9" text-anchor="middle">Personal best: 21 days</text>
      </g>
    </g>
  </g>
  
  <!-- Floating Decorations -->
  <circle cx="40" cy="100" r="25" fill="#FF6B35" stroke="#1A1A2E" stroke-width="3"/>
  <text x="40" y="106" fill="white" font-family="system-ui" font-size="20" font-weight="bold" text-anchor="middle">⏰</text>
  
  <rect x="730" y="150" width="45" height="45" fill="#FCBF49" stroke="#1A1A2E" stroke-width="3" transform="rotate(15 752 172)"/>
  <rect x="750" y="380" width="35" height="35" fill="#9B5DE5" stroke="#1A1A2E" stroke-width="3" transform="rotate(-10 767 397)"/>
  <circle cx="60" cy="420" r="20" fill="#2EC4B6" stroke="#1A1A2E" stroke-width="3"/>
  
  <!-- Tech Stack Badges -->
  <g transform="translate(180, 480)">
    <rect x="0" y="0" width="80" height="20" rx="4" fill="#1A1A2E"/>
    <text x="40" y="14" fill="white" font-family="system-ui" font-size="9" font-weight="bold" text-anchor="middle">Next.js</text>
    
    <rect x="90" y="0" width="80" height="20" rx="4" fill="#E0234E"/>
    <text x="130" y="14" fill="white" font-family="system-ui" font-size="9" font-weight="bold" text-anchor="middle">NestJS</text>
    
    <rect x="180" y="0" width="80" height="20" rx="4" fill="#336791"/>
    <text x="220" y="14" fill="white" font-family="system-ui" font-size="9" font-weight="bold" text-anchor="middle">PostgreSQL</text>
    
    <rect x="270" y="0" width="80" height="20" rx="4" fill="#3ECF8E"/>
    <text x="310" y="14" fill="white" font-family="system-ui" font-size="9" font-weight="bold" text-anchor="middle">Supabase</text>
    
    <rect x="360" y="0" width="80" height="20" rx="4" fill="#FF6B35"/>
    <text x="400" y="14" fill="white" font-family="system-ui" font-size="9" font-weight="bold" text-anchor="middle">Recharts</text>
  </g>
</svg>
