<svg width="1080" height="1080" viewBox="0 0 1080 1080" fill="none" xmlns="http://www.w3.org/2000/svg">
  <rect width="1080" height="1080" fill="#FAFAFA"/>
  
  <text x="60" y="80" font-family="system-ui, sans-serif" font-size="14" font-weight="600" fill="#18181B" letter-spacing="3">DEV WEEKENDS</text>
  
  <rect x="60" y="140" width="160" height="40" fill="#18181B"/>
  <text x="140" y="168" font-family="system-ui, sans-serif" font-size="14" font-weight="600" fill="#FAFAFA" text-anchor="middle">LLD</text>
  
  <text x="60" y="320" font-family="system-ui, sans-serif" font-size="64" font-weight="700" fill="#18181B">Factory</text>
  <text x="60" y="400" font-family="system-ui, sans-serif" font-size="64" font-weight="700" fill="#22C55E">Pattern</text>
  
  <text x="60" y="480" font-family="system-ui, sans-serif" font-size="22" fill="#52525B">Create objects without specifying exact class</text>
  
  <rect x="60" y="530" width="960" height="400" fill="#F4F4F5" rx="8"/>
  
  <rect x="400" y="570" width="280" height="60" fill="#18181B" rx="4"/>
  <text x="540" y="610" font-family="system-ui, sans-serif" font-size="18" font-weight="600" fill="#22C55E" text-anchor="middle">VehicleFactory</text>
  
  <line x1="540" y1="630" x2="540" y2="680" stroke="#18181B" stroke-width="2"/>
  <line x1="320" y1="680" x2="760" y2="680" stroke="#18181B" stroke-width="2"/>
  
  <line x1="320" y1="680" x2="320" y2="720" stroke="#18181B" stroke-width="2"/>
  <line x1="540" y1="680" x2="540" y2="720" stroke="#18181B" stroke-width="2"/>
  <line x1="760" y1="680" x2="760" y2="720" stroke="#18181B" stroke-width="2"/>
  
  <rect x="200" y="720" width="240" height="60" fill="#FEF08A" rx="4"/>
  <text x="320" y="758" font-family="system-ui, sans-serif" font-size="16" font-weight="600" fill="#18181B" text-anchor="middle">Car</text>
  
  <rect x="420" y="720" width="240" height="60" fill="#FEF08A" rx="4"/>
  <text x="540" y="758" font-family="system-ui, sans-serif" font-size="16" font-weight="600" fill="#18181B" text-anchor="middle">Motorcycle</text>
  
  <rect x="640" y="720" width="240" height="60" fill="#FEF08A" rx="4"/>
  <text x="760" y="758" font-family="system-ui, sans-serif" font-size="16" font-weight="600" fill="#18181B" text-anchor="middle">Truck</text>
  
  <rect x="100" y="820" width="860" height="80" fill="#18181B" rx="4"/>
  <text x="130" y="860" font-family="monospace" font-size="15" fill="#22C55E">factory.create("car")</text>
  <text x="400" y="860" font-family="monospace" font-size="15" fill="#FAFAFA">→ returns Car instance</text>
  
  <text x="100" y="960" font-family="system-ui, sans-serif" font-size="14" fill="#71717A">Use: Payment processors, UI components, Document parsers</text>
  
  <text x="540" y="1040" font-family="system-ui, sans-serif" font-size="14" fill="#71717A" text-anchor="middle">@devweekends</text>
</svg>