<svg width="1080" height="1080" viewBox="0 0 1080 1080" fill="none" xmlns="http://www.w3.org/2000/svg">
  <rect width="1080" height="1080" fill="#FAFAFA"/>
  
  <text x="60" y="80" font-family="system-ui, sans-serif" font-size="14" font-weight="600" fill="#18181B" letter-spacing="3">DEV WEEKENDS</text>
  
  <rect x="60" y="140" width="160" height="40" fill="#18181B"/>
  <text x="140" y="168" font-family="system-ui, sans-serif" font-size="14" font-weight="600" fill="#FAFAFA" text-anchor="middle">LLD</text>
  
  <text x="60" y="320" font-family="system-ui, sans-serif" font-size="64" font-weight="700" fill="#18181B">Strategy</text>
  <text x="60" y="400" font-family="system-ui, sans-serif" font-size="64" font-weight="700" fill="#EF4444">Pattern</text>
  
  <text x="60" y="480" font-family="system-ui, sans-serif" font-size="22" fill="#52525B">Define algorithms, make them interchangeable</text>
  
  <rect x="60" y="530" width="960" height="400" fill="#F4F4F5" rx="8"/>
  
  <rect x="380" y="570" width="320" height="60" fill="#18181B" rx="4"/>
  <text x="540" y="608" font-family="system-ui, sans-serif" font-size="16" font-weight="600" fill="#FAFAFA" text-anchor="middle">PaymentContext</text>
  
  <text x="540" y="660" font-family="system-ui, sans-serif" font-size="14" fill="#52525B" text-anchor="middle">setStrategy(strategy)</text>
  
  <rect x="380" y="680" width="320" height="50" fill="#EF4444" rx="4"/>
  <text x="540" y="712" font-family="system-ui, sans-serif" font-size="14" font-weight="600" fill="#FAFAFA" text-anchor="middle">PaymentStrategy (interface)</text>
  
  <line x1="320" y1="730" x2="320" y2="780" stroke="#18181B" stroke-width="2"/>
  <line x1="540" y1="730" x2="540" y2="780" stroke="#18181B" stroke-width="2"/>
  <line x1="760" y1="730" x2="760" y2="780" stroke="#18181B" stroke-width="2"/>
  
  <rect x="180" y="780" width="280" height="70" fill="#FEF08A" rx="4"/>
  <text x="320" y="815" font-family="system-ui, sans-serif" font-size="16" font-weight="600" fill="#18181B" text-anchor="middle">CreditCard</text>
  <text x="320" y="840" font-family="system-ui, sans-serif" font-size="12" fill="#52525B" text-anchor="middle">pay(amount)</text>
  
  <rect x="400" y="780" width="280" height="70" fill="#FEF08A" rx="4"/>
  <text x="540" y="815" font-family="system-ui, sans-serif" font-size="16" font-weight="600" fill="#18181B" text-anchor="middle">PayPal</text>
  <text x="540" y="840" font-family="system-ui, sans-serif" font-size="12" fill="#52525B" text-anchor="middle">pay(amount)</text>
  
  <rect x="620" y="780" width="280" height="70" fill="#FEF08A" rx="4"/>
  <text x="760" y="815" font-family="system-ui, sans-serif" font-size="16" font-weight="600" fill="#18181B" text-anchor="middle">Crypto</text>
  <text x="760" y="840" font-family="system-ui, sans-serif" font-size="12" fill="#52525B" text-anchor="middle">pay(amount)</text>
  
  <text x="540" y="900" font-family="system-ui, sans-serif" font-size="14" fill="#52525B" text-anchor="middle">Switch strategies at runtime without modifying context</text>
  
  <text x="100" y="960" font-family="system-ui, sans-serif" font-size="14" fill="#71717A">Use: Sorting algorithms, payment methods, compression</text>
  
  <text x="540" y="1040" font-family="system-ui, sans-serif" font-size="14" fill="#71717A" text-anchor="middle">@devweekends</text>
</svg>