<svg width="1080" height="1080" viewBox="0 0 1080 1080" fill="none" xmlns="http://www.w3.org/2000/svg">
  <rect width="1080" height="1080" fill="#18181B"/>
  
  <text x="60" y="80" font-family="system-ui, sans-serif" font-size="14" font-weight="600" fill="#FAFAFA" letter-spacing="3">DEV WEEKENDS</text>
  
  <rect x="60" y="140" width="160" height="40" fill="#A855F7"/>
  <text x="140" y="168" font-family="system-ui, sans-serif" font-size="14" font-weight="600" fill="#FAFAFA" text-anchor="middle">LLD</text>
  
  <text x="60" y="320" font-family="system-ui, sans-serif" font-size="64" font-weight="700" fill="#FAFAFA">Decorator</text>
  <text x="60" y="400" font-family="system-ui, sans-serif" font-size="64" font-weight="700" fill="#22C55E">Pattern</text>
  
  <text x="60" y="480" font-family="system-ui, sans-serif" font-size="22" fill="#A1A1AA">Add behavior dynamically, wrap objects</text>
  
  <rect x="60" y="530" width="960" height="400" fill="#27272A" rx="8"/>
  
  <rect x="380" y="570" width="320" height="60" fill="#3F3F46" rx="4"/>
  <text x="540" y="608" font-family="system-ui, sans-serif" font-size="16" font-weight="600" fill="#FAFAFA" text-anchor="middle">Coffee (base)</text>
  
  <rect x="100" y="670" width="200" height="60" fill="#22C55E" rx="4"/>
  <text x="200" y="708" font-family="system-ui, sans-serif" font-size="14" font-weight="600" fill="#18181B" text-anchor="middle">+Milk</text>
  
  <rect x="320" y="670" width="200" height="60" fill="#22C55E" rx="4"/>
  <text x="420" y="708" font-family="system-ui, sans-serif" font-size="14" font-weight="600" fill="#18181B" text-anchor="middle">+Sugar</text>
  
  <rect x="560" y="670" width="200" height="60" fill="#22C55E" rx="4"/>
  <text x="660" y="708" font-family="system-ui, sans-serif" font-size="14" font-weight="600" fill="#18181B" text-anchor="middle">+Whip</text>
  
  <rect x="780" y="670" width="200" height="60" fill="#22C55E" rx="4"/>
  <text x="880" y="708" font-family="system-ui, sans-serif" font-size="14" font-weight="600" fill="#18181B" text-anchor="middle">+Caramel</text>
  
  <text x="540" y="790" font-family="system-ui, sans-serif" font-size="18" fill="#FAFAFA" text-anchor="middle">Composition:</text>
  
  <rect x="200" y="820" width="680" height="60" fill="#FEF08A" rx="4"/>
  <text x="540" y="858" font-family="monospace" font-size="16" fill="#18181B" text-anchor="middle">new Whip(new Milk(new Coffee()))</text>
  
  <text x="540" y="920" font-family="system-ui, sans-serif" font-size="14" fill="#A1A1AA" text-anchor="middle">Each wrapper adds its behavior to the wrapped object</text>
  
  <text x="100" y="960" font-family="system-ui, sans-serif" font-size="14" fill="#71717A">Use: I/O streams, UI components, middleware</text>
  
  <text x="540" y="1040" font-family="system-ui, sans-serif" font-size="14" fill="#52525B" text-anchor="middle">@devweekends</text>
</svg>