<svg width="1080" height="1080" viewBox="0 0 1080 1080" fill="none" xmlns="http://www.w3.org/2000/svg">
  <rect width="1080" height="1080" fill="#FAFAFA"/>
  
  <text x="60" y="80" font-family="system-ui, sans-serif" font-size="14" font-weight="600" fill="#18181B" letter-spacing="3">DEV WEEKENDS</text>
  
  <rect x="60" y="140" width="160" height="40" fill="#18181B"/>
  <text x="140" y="168" font-family="system-ui, sans-serif" font-size="14" font-weight="600" fill="#FAFAFA" text-anchor="middle">LLD</text>
  
  <text x="60" y="320" font-family="system-ui, sans-serif" font-size="64" font-weight="700" fill="#18181B">Adapter</text>
  <text x="60" y="400" font-family="system-ui, sans-serif" font-size="64" font-weight="700" fill="#3B82F6">Pattern</text>
  
  <text x="60" y="480" font-family="system-ui, sans-serif" font-size="22" fill="#52525B">Convert interface to another interface clients expect</text>
  
  <rect x="60" y="530" width="960" height="400" fill="#F4F4F5" rx="8"/>
  
  <rect x="100" y="600" width="240" height="120" fill="#18181B" rx="4"/>
  <text x="220" y="650" font-family="system-ui, sans-serif" font-size="18" font-weight="600" fill="#FAFAFA" text-anchor="middle">Client</text>
  <text x="220" y="690" font-family="system-ui, sans-serif" font-size="14" fill="#A1A1AA" text-anchor="middle">expects Target</text>
  
  <line x1="340" y1="660" x2="420" y2="660" stroke="#18181B" stroke-width="2"/>
  <polygon points="420,655 430,660 420,665" fill="#18181B"/>
  
  <rect x="420" y="600" width="240" height="120" fill="#3B82F6" rx="4"/>
  <text x="540" y="650" font-family="system-ui, sans-serif" font-size="18" font-weight="600" fill="#FAFAFA" text-anchor="middle">Adapter</text>
  <text x="540" y="690" font-family="system-ui, sans-serif" font-size="14" fill="#FAFAFA" text-anchor="middle">translates calls</text>
  
  <line x1="660" y1="660" x2="740" y2="660" stroke="#18181B" stroke-width="2"/>
  <polygon points="740,655 750,660 740,665" fill="#18181B"/>
  
  <rect x="740" y="600" width="240" height="120" fill="#FEF08A" rx="4"/>
  <text x="860" y="650" font-family="system-ui, sans-serif" font-size="18" font-weight="600" fill="#18181B" text-anchor="middle">Adaptee</text>
  <text x="860" y="690" font-family="system-ui, sans-serif" font-size="14" fill="#52525B" text-anchor="middle">incompatible API</text>
  
  <rect x="100" y="780" width="860" height="80" fill="#18181B" rx="4"/>
  <text x="130" y="810" font-family="monospace" font-size="14" fill="#3B82F6">// Example: XMLtoJSONAdapter</text>
  <text x="130" y="840" font-family="monospace" font-size="14" fill="#FAFAFA">adapter.toJSON(xmlData) → converts XML to JSON</text>
  
  <text x="100" y="960" font-family="system-ui, sans-serif" font-size="14" fill="#71717A">Use: Legacy code integration, third-party libraries, API wrappers</text>
  
  <text x="540" y="1040" font-family="system-ui, sans-serif" font-size="14" fill="#71717A" text-anchor="middle">@devweekends</text>
</svg>