<svg width="1080" height="1080" viewBox="0 0 1080 1080" fill="none" xmlns="http://www.w3.org/2000/svg">
  <rect width="1080" height="1080" fill="#FAFAFA"/>
  
  <text x="60" y="80" font-family="system-ui, sans-serif" font-size="14" font-weight="600" fill="#18181B" letter-spacing="3">DEV WEEKENDS</text>
  
  <rect x="60" y="140" width="160" height="40" fill="#18181B"/>
  <text x="140" y="168" font-family="system-ui, sans-serif" font-size="14" font-weight="600" fill="#FAFAFA" text-anchor="middle">LLD</text>
  
  <text x="60" y="320" font-family="system-ui, sans-serif" font-size="64" font-weight="700" fill="#18181B">Command</text>
  <text x="60" y="400" font-family="system-ui, sans-serif" font-size="64" font-weight="700" fill="#A855F7">Pattern</text>
  
  <text x="60" y="480" font-family="system-ui, sans-serif" font-size="22" fill="#52525B">Encapsulate requests as objects, support undo</text>
  
  <rect x="60" y="530" width="960" height="400" fill="#F4F4F5" rx="8"/>
  
  <rect x="100" y="580" width="200" height="80" fill="#18181B" rx="4"/>
  <text x="200" y="620" font-family="system-ui, sans-serif" font-size="16" font-weight="600" fill="#FAFAFA" text-anchor="middle">Invoker</text>
  <text x="200" y="650" font-family="system-ui, sans-serif" font-size="12" fill="#A1A1AA" text-anchor="middle">execute()</text>
  
  <line x1="300" y1="620" x2="400" y2="620" stroke="#18181B" stroke-width="2"/>
  <polygon points="400,615 410,620 400,625" fill="#18181B"/>
  
  <rect x="400" y="580" width="280" height="80" fill="#A855F7" rx="4"/>
  <text x="540" y="620" font-family="system-ui, sans-serif" font-size="16" font-weight="600" fill="#FAFAFA" text-anchor="middle">Command (interface)</text>
  <text x="540" y="650" font-family="system-ui, sans-serif" font-size="12" fill="#FAFAFA" text-anchor="middle">execute(), undo()</text>
  
  <line x1="680" y1="620" x2="780" y2="620" stroke="#18181B" stroke-width="2"/>
  <polygon points="780,615 790,620 780,625" fill="#18181B"/>
  
  <rect x="780" y="580" width="200" height="80" fill="#18181B" rx="4"/>
  <text x="880" y="620" font-family="system-ui, sans-serif" font-size="16" font-weight="600" fill="#FAFAFA" text-anchor="middle">Receiver</text>
  <text x="880" y="650" font-family="system-ui, sans-serif" font-size="12" fill="#A1A1AA" text-anchor="middle">action()</text>
  
  <rect x="280" y="700" width="180" height="60" fill="#FEF08A" rx="4"/>
  <text x="370" y="738" font-family="system-ui, sans-serif" font-size="14" font-weight="600" fill="#18181B" text-anchor="middle">CopyCommand</text>
  
  <rect x="480" y="700" width="180" height="60" fill="#FEF08A" rx="4"/>
  <text x="570" y="738" font-family="system-ui, sans-serif" font-size="14" font-weight="600" fill="#18181B" text-anchor="middle">PasteCommand</text>
  
  <rect x="680" y="700" width="180" height="60" fill="#FEF08A" rx="4"/>
  <text x="770" y="738" font-family="system-ui, sans-serif" font-size="14" font-weight="600" fill="#18181B" text-anchor="middle">DeleteCommand</text>
  
  <rect x="100" y="800" width="860" height="60" fill="#18181B" rx="4"/>
  <text x="540" y="838" font-family="system-ui, sans-serif" font-size="14" fill="#FAFAFA" text-anchor="middle">Commands can be queued, logged, and undone</text>
  
  <text x="100" y="960" font-family="system-ui, sans-serif" font-size="14" fill="#71717A">Use: Text editors, transaction systems, macro recording</text>
  
  <text x="540" y="1040" font-family="system-ui, sans-serif" font-size="14" fill="#71717A" text-anchor="middle">@devweekends</text>
</svg>