<svg width="1080" height="1080" viewBox="0 0 1080 1080" fill="none" xmlns="http://www.w3.org/2000/svg">
  <rect width="1080" height="1080" fill="#18181B"/>
  
  <text x="60" y="80" font-family="system-ui, sans-serif" font-size="14" font-weight="600" fill="#FAFAFA" letter-spacing="3">DEV WEEKENDS</text>
  
  <rect x="60" y="140" width="160" height="40" fill="#A855F7"/>
  <text x="140" y="168" font-family="system-ui, sans-serif" font-size="14" font-weight="600" fill="#FAFAFA" text-anchor="middle">LLD</text>
  
  <text x="60" y="320" font-family="system-ui, sans-serif" font-size="64" font-weight="700" fill="#FAFAFA">Facade</text>
  <text x="60" y="400" font-family="system-ui, sans-serif" font-size="64" font-weight="700" fill="#22C55E">Pattern</text>
  
  <text x="60" y="480" font-family="system-ui, sans-serif" font-size="22" fill="#A1A1AA">Simplified interface to complex subsystem</text>
  
  <rect x="60" y="530" width="960" height="400" fill="#27272A" rx="8"/>
  
  <rect x="380" y="560" width="320" height="70" fill="#22C55E" rx="4"/>
  <text x="540" y="605" font-family="system-ui, sans-serif" font-size="20" font-weight="600" fill="#18181B" text-anchor="middle">HomeTheaterFacade</text>
  
  <line x1="540" y1="630" x2="540" y2="680" stroke="#FAFAFA" stroke-width="2"/>
  
  <text x="540" y="710" font-family="system-ui, sans-serif" font-size="14" fill="#A1A1AA" text-anchor="middle">watchMovie() hides complexity</text>
  
  <line x1="300" y1="740" x2="780" y2="740" stroke="#3F3F46" stroke-width="1"/>
  
  <rect x="100" y="770" width="160" height="60" fill="#3F3F46" rx="4"/>
  <text x="180" y="808" font-family="system-ui, sans-serif" font-size="13" font-weight="500" fill="#FAFAFA" text-anchor="middle">DVDPlayer</text>
  
  <rect x="280" y="770" width="160" height="60" fill="#3F3F46" rx="4"/>
  <text x="360" y="808" font-family="system-ui, sans-serif" font-size="13" font-weight="500" fill="#FAFAFA" text-anchor="middle">Projector</text>
  
  <rect x="460" y="770" width="160" height="60" fill="#3F3F46" rx="4"/>
  <text x="540" y="808" font-family="system-ui, sans-serif" font-size="13" font-weight="500" fill="#FAFAFA" text-anchor="middle">Amplifier</text>
  
  <rect x="640" y="770" width="160" height="60" fill="#3F3F46" rx="4"/>
  <text x="720" y="808" font-family="system-ui, sans-serif" font-size="13" font-weight="500" fill="#FAFAFA" text-anchor="middle">Lights</text>
  
  <rect x="820" y="770" width="160" height="60" fill="#3F3F46" rx="4"/>
  <text x="900" y="808" font-family="system-ui, sans-serif" font-size="13" font-weight="500" fill="#FAFAFA" text-anchor="middle">Screen</text>
  
  <text x="540" y="880" font-family="system-ui, sans-serif" font-size="14" fill="#A1A1AA" text-anchor="middle">Client interacts only with facade, not subsystems</text>
  
  <text x="100" y="960" font-family="system-ui, sans-serif" font-size="14" fill="#71717A">Use: Library wrappers, API simplification, legacy systems</text>
  
  <text x="540" y="1040" font-family="system-ui, sans-serif" font-size="14" fill="#52525B" text-anchor="middle">@devweekends</text>
</svg>