<svg width="1080" height="1080" viewBox="0 0 1080 1080" fill="none" xmlns="http://www.w3.org/2000/svg">
  <rect width="1080" height="1080" fill="#FAFAFA"/>
  
  <text x="60" y="80" font-family="system-ui, sans-serif" font-size="14" font-weight="600" fill="#18181B" letter-spacing="3">DEV WEEKENDS</text>
  
  <rect x="60" y="140" width="160" height="40" fill="#18181B"/>
  <text x="140" y="168" font-family="system-ui, sans-serif" font-size="14" font-weight="600" fill="#FAFAFA" text-anchor="middle">LLD</text>
  
  <text x="60" y="320" font-family="system-ui, sans-serif" font-size="64" font-weight="700" fill="#18181B">Proxy</text>
  <text x="60" y="400" font-family="system-ui, sans-serif" font-size="64" font-weight="700" fill="#EF4444">Pattern</text>
  
  <text x="60" y="480" font-family="system-ui, sans-serif" font-size="22" fill="#52525B">Control access, add functionality to object</text>
  
  <rect x="60" y="530" width="960" height="400" fill="#F4F4F5" rx="8"/>
  
  <rect x="100" y="600" width="200" height="100" fill="#18181B" rx="4"/>
  <text x="200" y="650" font-family="system-ui, sans-serif" font-size="18" font-weight="600" fill="#FAFAFA" text-anchor="middle">Client</text>
  
  <line x1="300" y1="650" x2="400" y2="650" stroke="#18181B" stroke-width="2"/>
  <polygon points="400,645 410,650 400,655" fill="#18181B"/>
  
  <rect x="400" y="600" width="280" height="100" fill="#EF4444" rx="4"/>
  <text x="540" y="640" font-family="system-ui, sans-serif" font-size="18" font-weight="600" fill="#FAFAFA" text-anchor="middle">Proxy</text>
  <text x="540" y="680" font-family="system-ui, sans-serif" font-size="13" fill="#FAFAFA" text-anchor="middle">caching / auth / logging</text>
  
  <line x1="680" y1="650" x2="780" y2="650" stroke="#18181B" stroke-width="2"/>
  <polygon points="780,645 790,650 780,655" fill="#18181B"/>
  
  <rect x="780" y="600" width="200" height="100" fill="#18181B" rx="4"/>
  <text x="880" y="650" font-family="system-ui, sans-serif" font-size="18" font-weight="600" fill="#FAFAFA" text-anchor="middle">Real Service</text>
  
  <rect x="100" y="750" width="280" height="80" fill="#FEF08A" rx="4"/>
  <text x="240" y="785" font-family="system-ui, sans-serif" font-size="14" font-weight="600" fill="#18181B" text-anchor="middle">Protection Proxy</text>
  <text x="240" y="810" font-family="system-ui, sans-serif" font-size="12" fill="#52525B" text-anchor="middle">access control</text>
  
  <rect x="400" y="750" width="280" height="80" fill="#FEF08A" rx="4"/>
  <text x="540" y="785" font-family="system-ui, sans-serif" font-size="14" font-weight="600" fill="#18181B" text-anchor="middle">Caching Proxy</text>
  <text x="540" y="810" font-family="system-ui, sans-serif" font-size="12" fill="#52525B" text-anchor="middle">store results</text>
  
  <rect x="700" y="750" width="280" height="80" fill="#FEF08A" rx="4"/>
  <text x="840" y="785" font-family="system-ui, sans-serif" font-size="14" font-weight="600" fill="#18181B" text-anchor="middle">Virtual Proxy</text>
  <text x="840" y="810" font-family="system-ui, sans-serif" font-size="12" fill="#52525B" text-anchor="middle">lazy loading</text>
  
  <text x="100" y="960" font-family="system-ui, sans-serif" font-size="14" fill="#71717A">Use: Lazy loading, access control, logging, caching</text>
  
  <text x="540" y="1040" font-family="system-ui, sans-serif" font-size="14" fill="#71717A" text-anchor="middle">@devweekends</text>
</svg>