<svg width="1080" height="1080" viewBox="0 0 1080 1080" fill="none" xmlns="http://www.w3.org/2000/svg">
  <rect width="1080" height="1080" fill="#18181B"/>
  
  <text x="60" y="80" font-family="system-ui, sans-serif" font-size="14" font-weight="600" fill="#FAFAFA" letter-spacing="3">DEV WEEKENDS</text>
  
  <rect x="60" y="140" width="160" height="40" fill="#A855F7"/>
  <text x="140" y="168" font-family="system-ui, sans-serif" font-size="14" font-weight="600" fill="#FAFAFA" text-anchor="middle">LLD</text>
  
  <text x="60" y="320" font-family="system-ui, sans-serif" font-size="64" font-weight="700" fill="#FAFAFA">State</text>
  <text x="60" y="400" font-family="system-ui, sans-serif" font-size="64" font-weight="700" fill="#3B82F6">Pattern</text>
  
  <text x="60" y="480" font-family="system-ui, sans-serif" font-size="22" fill="#A1A1AA">Object behavior changes based on state</text>
  
  <rect x="60" y="530" width="960" height="400" fill="#27272A" rx="8"/>
  
  <rect x="380" y="570" width="320" height="70" fill="#3B82F6" rx="4"/>
  <text x="540" y="615" font-family="system-ui, sans-serif" font-size="18" font-weight="600" fill="#FAFAFA" text-anchor="middle">Order Context</text>
  
  <rect x="600" y="590" width="80" height="30" fill="#27272A" stroke="#FAFAFA" stroke-width="1" rx="4"/>
  <text x="640" y="612" font-family="system-ui, sans-serif" font-size="11" fill="#A1A1AA" text-anchor="middle">state</text>
  
  <line x1="540" y1="640" x2="540" y2="690" stroke="#FAFAFA" stroke-width="2"/>
  
  <rect x="330" y="690" width="420" height="50" fill="#3F3F46" rx="4"/>
  <text x="540" y="722" font-family="system-ui, sans-serif" font-size="14" fill="#FAFAFA" text-anchor="middle">OrderState (interface): process(), cancel()</text>
  
  <line x1="250" y1="740" x2="250" y2="780" stroke="#FAFAFA" stroke-width="1"/>
  <line x1="430" y1="740" x2="430" y2="780" stroke="#FAFAFA" stroke-width="1"/>
  <line x1="650" y1="740" x2="650" y2="780" stroke="#FAFAFA" stroke-width="1"/>
  <line x1="830" y1="740" x2="830" y2="780" stroke="#FAFAFA" stroke-width="1"/>
  
  <rect x="150" y="780" width="200" height="60" fill="#FEF08A" rx="4"/>
  <text x="250" y="818" font-family="system-ui, sans-serif" font-size="14" font-weight="600" fill="#18181B" text-anchor="middle">Pending</text>
  
  <rect x="330" y="780" width="200" height="60" fill="#22C55E" rx="4"/>
  <text x="430" y="818" font-family="system-ui, sans-serif" font-size="14" font-weight="600" fill="#18181B" text-anchor="middle">Processing</text>
  
  <rect x="550" y="780" width="200" height="60" fill="#3B82F6" rx="4"/>
  <text x="650" y="818" font-family="system-ui, sans-serif" font-size="14" font-weight="600" fill="#FAFAFA" text-anchor="middle">Shipped</text>
  
  <rect x="730" y="780" width="200" height="60" fill="#A855F7" rx="4"/>
  <text x="830" y="818" font-family="system-ui, sans-serif" font-size="14" font-weight="600" fill="#FAFAFA" text-anchor="middle">Delivered</text>
  
  <line x1="350" y1="810" x2="330" y2="810" stroke="#FAFAFA" stroke-width="2"/>
  <line x1="530" y1="810" x2="550" y2="810" stroke="#FAFAFA" stroke-width="2"/>
  <line x1="750" y1="810" x2="730" y2="810" stroke="#FAFAFA" stroke-width="2"/>
  
  <text x="540" y="890" font-family="system-ui, sans-serif" font-size="14" fill="#A1A1AA" text-anchor="middle">Each state handles transitions differently</text>
  
  <text x="100" y="960" font-family="system-ui, sans-serif" font-size="14" fill="#71717A">Use: Order systems, UI components, game states</text>
  
  <text x="540" y="1040" font-family="system-ui, sans-serif" font-size="14" fill="#52525B" text-anchor="middle">@devweekends</text>
</svg>