<svg width="1080" height="1080" viewBox="0 0 1080 1080" fill="none" xmlns="http://www.w3.org/2000/svg">
  <rect width="1080" height="1080" fill="#FAFAFA"/>
  
  <text x="60" y="80" font-family="system-ui, sans-serif" font-size="14" font-weight="600" fill="#18181B" letter-spacing="3">DEV WEEKENDS</text>
  
  <rect x="60" y="140" width="160" height="40" fill="#18181B"/>
  <text x="140" y="168" font-family="system-ui, sans-serif" font-size="14" font-weight="600" fill="#FAFAFA" text-anchor="middle">LLD</text>
  
  <text x="60" y="320" font-family="system-ui, sans-serif" font-size="64" font-weight="700" fill="#18181B">Composite</text>
  <text x="60" y="400" font-family="system-ui, sans-serif" font-size="64" font-weight="700" fill="#A855F7">Pattern</text>
  
  <text x="60" y="480" font-family="system-ui, sans-serif" font-size="22" fill="#52525B">Treat individual objects and compositions uniformly</text>
  
  <rect x="60" y="530" width="960" height="400" fill="#F4F4F5" rx="8"/>
  
  <rect x="380" y="560" width="320" height="60" fill="#A855F7" rx="4"/>
  <text x="540" y="598" font-family="system-ui, sans-serif" font-size="16" font-weight="600" fill="#FAFAFA" text-anchor="middle">Component (interface)</text>
  
  <line x1="450" y1="620" x2="340" y2="680" stroke="#18181B" stroke-width="2"/>
  <line x1="630" y1="620" x2="740" y2="680" stroke="#18181B" stroke-width="2"/>
  
  <rect x="200" y="680" width="280" height="80" fill="#FEF08A" rx="4"/>
  <text x="340" y="715" font-family="system-ui, sans-serif" font-size="16" font-weight="600" fill="#18181B" text-anchor="middle">Leaf (File)</text>
  <text x="340" y="745" font-family="system-ui, sans-serif" font-size="12" fill="#52525B" text-anchor="middle">getSize(): return size</text>
  
  <rect x="600" y="680" width="280" height="80" fill="#18181B" rx="4"/>
  <text x="740" y="715" font-family="system-ui, sans-serif" font-size="16" font-weight="600" fill="#FAFAFA" text-anchor="middle">Composite (Folder)</text>
  <text x="740" y="745" font-family="system-ui, sans-serif" font-size="12" fill="#A1A1AA" text-anchor="middle">getSize(): sum children</text>
  
  <line x1="740" y1="760" x2="740" y2="810" stroke="#18181B" stroke-width="2"/>
  
  <rect x="540" y="810" width="120" height="50" fill="#FEF08A" rx="4"/>
  <text x="600" y="842" font-family="system-ui, sans-serif" font-size="13" fill="#18181B" text-anchor="middle">File A</text>
  
  <rect x="680" y="810" width="120" height="50" fill="#FEF08A" rx="4"/>
  <text x="740" y="842" font-family="system-ui, sans-serif" font-size="13" fill="#18181B" text-anchor="middle">File B</text>
  
  <rect x="820" y="810" width="140" height="50" fill="#18181B" rx="4"/>
  <text x="890" y="842" font-family="system-ui, sans-serif" font-size="13" fill="#FAFAFA" text-anchor="middle">Subfolder</text>
  
  <text x="540" y="920" font-family="system-ui, sans-serif" font-size="14" fill="#52525B" text-anchor="middle">folder.getSize() recursively sums all files</text>
  
  <text x="100" y="960" font-family="system-ui, sans-serif" font-size="14" fill="#71717A">Use: File systems, UI hierarchies, org charts</text>
  
  <text x="540" y="1040" font-family="system-ui, sans-serif" font-size="14" fill="#71717A" text-anchor="middle">@devweekends</text>
</svg>