<svg width="1080" height="1080" viewBox="0 0 1080 1080" fill="none" xmlns="http://www.w3.org/2000/svg">
  <rect width="1080" height="1080" fill="#FAFAFA"/>
  
  <text x="60" y="80" font-family="system-ui, sans-serif" font-size="14" font-weight="600" fill="#18181B" letter-spacing="3">DEV WEEKENDS</text>
  
  <rect x="60" y="140" width="160" height="40" fill="#18181B"/>
  <text x="140" y="168" font-family="system-ui, sans-serif" font-size="14" font-weight="600" fill="#FAFAFA" text-anchor="middle">LLD</text>
  
  <text x="60" y="320" font-family="system-ui, sans-serif" font-size="64" font-weight="700" fill="#18181B">Mediator</text>
  <text x="60" y="400" font-family="system-ui, sans-serif" font-size="64" font-weight="700" fill="#3B82F6">Pattern</text>
  
  <text x="60" y="480" font-family="system-ui, sans-serif" font-size="22" fill="#52525B">Centralize complex communications between objects</text>
  
  <rect x="60" y="530" width="960" height="400" fill="#F4F4F5" rx="8"/>
  
  <circle cx="540" cy="720" r="80" fill="#3B82F6"/>
  <text x="540" y="715" font-family="system-ui, sans-serif" font-size="16" font-weight="600" fill="#FAFAFA" text-anchor="middle">Chat</text>
  <text x="540" y="740" font-family="system-ui, sans-serif" font-size="16" font-weight="600" fill="#FAFAFA" text-anchor="middle">Mediator</text>
  
  <rect x="140" y="580" width="140" height="60" fill="#FEF08A" rx="4"/>
  <text x="210" y="618" font-family="system-ui, sans-serif" font-size="14" font-weight="600" fill="#18181B" text-anchor="middle">User A</text>
  
  <rect x="340" y="580" width="140" height="60" fill="#FEF08A" rx="4"/>
  <text x="410" y="618" font-family="system-ui, sans-serif" font-size="14" font-weight="600" fill="#18181B" text-anchor="middle">User B</text>
  
  <rect x="600" y="580" width="140" height="60" fill="#FEF08A" rx="4"/>
  <text x="670" y="618" font-family="system-ui, sans-serif" font-size="14" font-weight="600" fill="#18181B" text-anchor="middle">User C</text>
  
  <rect x="800" y="580" width="140" height="60" fill="#FEF08A" rx="4"/>
  <text x="870" y="618" font-family="system-ui, sans-serif" font-size="14" font-weight="600" fill="#18181B" text-anchor="middle">User D</text>
  
  <line x1="210" y1="640" x2="480" y2="680" stroke="#18181B" stroke-width="2"/>
  <line x1="410" y1="640" x2="500" y2="680" stroke="#18181B" stroke-width="2"/>
  <line x1="670" y1="640" x2="580" y2="680" stroke="#18181B" stroke-width="2"/>
  <line x1="870" y1="640" x2="600" y2="680" stroke="#18181B" stroke-width="2"/>
  
  <rect x="200" y="840" width="680" height="60" fill="#18181B" rx="4"/>
  <text x="540" y="878" font-family="system-ui, sans-serif" font-size="14" fill="#FAFAFA" text-anchor="middle">Users communicate through mediator, not directly</text>
  
  <text x="100" y="960" font-family="system-ui, sans-serif" font-size="14" fill="#71717A">Use: Chat rooms, air traffic control, form validation</text>
  
  <text x="540" y="1040" font-family="system-ui, sans-serif" font-size="14" fill="#71717A" text-anchor="middle">@devweekends</text>
</svg>