<svg width="1080" height="1080" viewBox="0 0 1080 1080" fill="none" xmlns="http://www.w3.org/2000/svg">
  <rect width="1080" height="1080" fill="#18181B"/>
  
  <text x="60" y="80" font-family="system-ui, sans-serif" font-size="14" font-weight="600" fill="#FAFAFA" letter-spacing="3">DEV WEEKENDS</text>
  
  <rect x="60" y="140" width="160" height="40" fill="#A855F7"/>
  <text x="140" y="168" font-family="system-ui, sans-serif" font-size="14" font-weight="600" fill="#FAFAFA" text-anchor="middle">LLD</text>
  
  <text x="60" y="320" font-family="system-ui, sans-serif" font-size="64" font-weight="700" fill="#FAFAFA">Visitor</text>
  <text x="60" y="400" font-family="system-ui, sans-serif" font-size="64" font-weight="700" fill="#FEF08A">Pattern</text>
  
  <text x="60" y="480" font-family="system-ui, sans-serif" font-size="22" fill="#A1A1AA">Add operations without modifying classes</text>
  
  <rect x="60" y="530" width="960" height="400" fill="#27272A" rx="8"/>
  
  <rect x="100" y="580" width="400" height="140" fill="#3F3F46" rx="4"/>
  <text x="300" y="630" font-family="system-ui, sans-serif" font-size="16" font-weight="600" fill="#FEF08A" text-anchor="middle">Elements</text>
  
  <rect x="130" y="660" width="100" height="40" fill="#FEF08A" rx="4"/>
  <text x="180" y="688" font-family="system-ui, sans-serif" font-size="12" font-weight="600" fill="#18181B" text-anchor="middle">Circle</text>
  
  <rect x="250" y="660" width="100" height="40" fill="#FEF08A" rx="4"/>
  <text x="300" y="688" font-family="system-ui, sans-serif" font-size="12" font-weight="600" fill="#18181B" text-anchor="middle">Square</text>
  
  <rect x="370" y="660" width="100" height="40" fill="#FEF08A" rx="4"/>
  <text x="420" y="688" font-family="system-ui, sans-serif" font-size="12" font-weight="600" fill="#18181B" text-anchor="middle">Triangle</text>
  
  <rect x="580" y="580" width="400" height="140" fill="#3F3F46" rx="4"/>
  <text x="780" y="630" font-family="system-ui, sans-serif" font-size="16" font-weight="600" fill="#22C55E" text-anchor="middle">Visitors</text>
  
  <rect x="610" y="660" width="160" height="40" fill="#22C55E" rx="4"/>
  <text x="690" y="688" font-family="system-ui, sans-serif" font-size="12" font-weight="600" fill="#18181B" text-anchor="middle">AreaCalculator</text>
  
  <rect x="790" y="660" width="160" height="40" fill="#22C55E" rx="4"/>
  <text x="870" y="688" font-family="system-ui, sans-serif" font-size="12" font-weight="600" fill="#18181B" text-anchor="middle">XMLExporter</text>
  
  <line x1="500" y1="680" x2="580" y2="680" stroke="#FEF08A" stroke-width="2"/>
  <text x="540" y="670" font-family="system-ui, sans-serif" font-size="11" fill="#A1A1AA" text-anchor="middle">accept</text>
  <polygon points="570,675 580,680 570,685" fill="#FEF08A"/>
  
  <rect x="100" y="760" width="880" height="100" fill="#3F3F46" rx="4"/>
  <text x="140" y="800" font-family="monospace" font-size="14" fill="#FEF08A">circle.accept(areaVisitor)</text>
  <text x="500" y="800" font-family="monospace" font-size="14" fill="#FAFAFA">→ visitor.visitCircle(this)</text>
  <text x="140" y="840" font-family="system-ui, sans-serif" font-size="13" fill="#A1A1AA">Double dispatch: element type + visitor type determines action</text>
  
  <text x="100" y="960" font-family="system-ui, sans-serif" font-size="14" fill="#71717A">Use: Compilers, document exports, analytics</text>
  
  <text x="540" y="1040" font-family="system-ui, sans-serif" font-size="14" fill="#52525B" text-anchor="middle">@devweekends</text>
</svg>