<svg width="1080" height="1080" viewBox="0 0 1080 1080" fill="none" xmlns="http://www.w3.org/2000/svg">
  <rect width="1080" height="1080" fill="#FAFAFA"/>
  <rect x="0" y="0" width="8" height="1080" fill="#18181B"/>
  
  <text x="60" y="80" font-family="system-ui, sans-serif" font-size="14" font-weight="600" fill="#18181B" letter-spacing="3">DEV WEEKENDS</text>
  
  <rect x="60" y="140" width="200" height="40" fill="#18181B"/>
  <text x="160" y="168" font-family="system-ui, sans-serif" font-size="12" font-weight="600" fill="#FAFAFA" text-anchor="middle" letter-spacing="2">2024 REWIND</text>
  
  <text x="60" y="280" font-family="system-ui, sans-serif" font-size="48" font-weight="700" fill="#18181B">Top 5 Moments</text>
  <text x="60" y="340" font-family="system-ui, sans-serif" font-size="48" font-weight="700" fill="#18181B">of the Year</text>
  
  <rect x="60" y="400" width="960" height="100" fill="#F4F4F5" rx="8"/>
  <rect x="60" y="400" width="60" height="100" fill="#FEF08A" rx="8"/>
  <text x="90" y="462" font-family="system-ui, sans-serif" font-size="32" font-weight="700" fill="#18181B" text-anchor="middle">1</text>
  <text x="160" y="462" font-family="system-ui, sans-serif" font-size="20" fill="#18181B">Crossed 5,000 community members</text>
  
  <rect x="60" y="520" width="960" height="100" fill="#F4F4F5" rx="8"/>
  <rect x="60" y="520" width="60" height="100" fill="#FEF08A" rx="8"/>
  <text x="90" y="582" font-family="system-ui, sans-serif" font-size="32" font-weight="700" fill="#18181B" text-anchor="middle">2</text>
  <text x="160" y="582" font-family="system-ui, sans-serif" font-size="20" fill="#18181B">75+ fellows placed at top companies</text>
  
  <rect x="60" y="640" width="960" height="100" fill="#F4F4F5" rx="8"/>
  <rect x="60" y="640" width="60" height="100" fill="#FEF08A" rx="8"/>
  <text x="90" y="702" font-family="system-ui, sans-serif" font-size="32" font-weight="700" fill="#18181B" text-anchor="middle">3</text>
  <text x="160" y="702" font-family="system-ui, sans-serif" font-size="20" fill="#18181B">Launched the Circles program</text>
  
  <rect x="60" y="760" width="960" height="100" fill="#F4F4F5" rx="8"/>
  <rect x="60" y="760" width="60" height="100" fill="#FEF08A" rx="8"/>
  <text x="90" y="822" font-family="system-ui, sans-serif" font-size="32" font-weight="700" fill="#18181B" text-anchor="middle">4</text>
  <text x="160" y="822" font-family="system-ui, sans-serif" font-size="20" fill="#18181B">50+ MindMaster sessions completed</text>
  
  <rect x="60" y="880" width="960" height="100" fill="#F4F4F5" rx="8"/>
  <rect x="60" y="880" width="60" height="100" fill="#FEF08A" rx="8"/>
  <text x="90" y="942" font-family="system-ui, sans-serif" font-size="32" font-weight="700" fill="#18181B" text-anchor="middle">5</text>
  <text x="160" y="942" font-family="system-ui, sans-serif" font-size="20" fill="#18181B">Ambassador program expanded to 20+ colleges</text>
  
  <text x="540" y="1040" font-family="system-ui, sans-serif" font-size="14" fill="#71717A" text-anchor="middle">@devweekends</text>
</svg>