<svg width="1080" height="1080" viewBox="0 0 1080 1080" fill="none" xmlns="http://www.w3.org/2000/svg">
  <rect width="1080" height="1080" fill="#18181B"/>
  
  <text x="60" y="80" font-family="system-ui, sans-serif" font-size="14" font-weight="600" fill="#FAFAFA" letter-spacing="3">DEV WEEKENDS</text>
  
  <rect x="60" y="140" width="200" height="40" fill="#FEF08A"/>
  <text x="160" y="168" font-family="system-ui, sans-serif" font-size="12" font-weight="600" fill="#18181B" text-anchor="middle" letter-spacing="2">GROWTH</text>
  
  <text x="60" y="300" font-family="system-ui, sans-serif" font-size="48" font-weight="700" fill="#FAFAFA">Community Growth</text>
  <text x="60" y="360" font-family="system-ui, sans-serif" font-size="48" font-weight="700" fill="#FEF08A">2024</text>
  
  <rect x="60" y="420" width="960" height="400" fill="#27272A" rx="8"/>
  
  <line x1="120" y1="480" x2="120" y2="760" stroke="#3F3F46" stroke-width="2"/>
  <line x1="120" y1="760" x2="960" y2="760" stroke="#3F3F46" stroke-width="2"/>
  
  <text x="100" y="500" font-family="system-ui, sans-serif" font-size="12" fill="#71717A" text-anchor="end">5K</text>
  <text x="100" y="580" font-family="system-ui, sans-serif" font-size="12" fill="#71717A" text-anchor="end">3K</text>
  <text x="100" y="660" font-family="system-ui, sans-serif" font-size="12" fill="#71717A" text-anchor="end">1K</text>
  <text x="100" y="760" font-family="system-ui, sans-serif" font-size="12" fill="#71717A" text-anchor="end">0</text>
  
  <path d="M180 720 L300 680 L420 620 L540 560 L660 520 L780 480 L900 440" stroke="#FEF08A" stroke-width="4" fill="none"/>
  <circle cx="180" cy="720" r="8" fill="#FEF08A"/>
  <circle cx="300" cy="680" r="8" fill="#FEF08A"/>
  <circle cx="420" cy="620" r="8" fill="#FEF08A"/>
  <circle cx="540" cy="560" r="8" fill="#FEF08A"/>
  <circle cx="660" cy="520" r="8" fill="#FEF08A"/>
  <circle cx="780" cy="480" r="8" fill="#FEF08A"/>
  <circle cx="900" cy="440" r="8" fill="#FEF08A"/>
  
  <text x="180" y="790" font-family="system-ui, sans-serif" font-size="11" fill="#71717A" text-anchor="middle">Jan</text>
  <text x="300" y="790" font-family="system-ui, sans-serif" font-size="11" fill="#71717A" text-anchor="middle">Mar</text>
  <text x="420" y="790" font-family="system-ui, sans-serif" font-size="11" fill="#71717A" text-anchor="middle">May</text>
  <text x="540" y="790" font-family="system-ui, sans-serif" font-size="11" fill="#71717A" text-anchor="middle">Jul</text>
  <text x="660" y="790" font-family="system-ui, sans-serif" font-size="11" fill="#71717A" text-anchor="middle">Sep</text>
  <text x="780" y="790" font-family="system-ui, sans-serif" font-size="11" fill="#71717A" text-anchor="middle">Nov</text>
  <text x="900" y="790" font-family="system-ui, sans-serif" font-size="11" fill="#71717A" text-anchor="middle">Dec</text>
  
  <text x="540" y="880" font-family="system-ui, sans-serif" font-size="32" font-weight="700" fill="#22C55E" text-anchor="middle">+350% Growth</text>
  
  <text x="540" y="980" font-family="system-ui, sans-serif" font-size="18" fill="#A1A1AA" text-anchor="middle">From 1,100 to 5,000+ members</text>
  <text x="540" y="1040" font-family="system-ui, sans-serif" font-size="14" fill="#52525B" text-anchor="middle">@devweekends</text>
</svg>